<?xml version="1.0" encoding="UTF-8" standalone="no"?>
<svg
   xmlns:dc="http://purl.org/dc/elements/1.1/"
   xmlns:cc="http://creativecommons.org/ns#"
   xmlns:rdf="http://www.w3.org/1999/02/22-rdf-syntax-ns#"
   xmlns:svg="http://www.w3.org/2000/svg"
   xmlns="http://www.w3.org/2000/svg"
   width="5.2083335in"
   height="5.2083335in"
   viewBox="0 0 132.29167 132.29167"
   version="1.1"
   id="svg947">
  <defs
     id="defs941">
    <rect
       x="73.554161"
       y="107.95"
       width="132.29166"
       height="66.14584"
       id="rect861" />
    <rect
       x="73.554161"
       y="107.95"
       width="132.29166"
       height="66.14584"
       id="rect855" />
    <rect
       id="rect1449"
       height="53.67662"
       width="120.42831"
       y="104.25651"
       x="79.482689" />
    <rect
       id="rect1441"
       height="91.181435"
       width="132.47115"
       y="59.870075"
       x="73.633308" />
    <rect
       id="rect879"
       height="66.14584"
       width="132.29166"
       y="107.95"
       x="73.554161" />
    <rect
       id="rect881"
       height="66.14584"
       width="132.29166"
       y="107.95"
       x="73.554161" />
    <rect
       x="73.554161"
       y="107.95"
       width="132.29166"
       height="66.14584"
       id="rect922" />
  </defs>
  <metadata
     id="metadata944">
    <rdf:RDF>
      <cc:Work
         rdf:about="">
        <dc:format>image/svg+xml</dc:format>
        <dc:type
           rdf:resource="http://purl.org/dc/dcmitype/StillImage" />
        <dc:title></dc:title>
      </cc:Work>
    </rdf:RDF>
  </metadata>
  <g
     style="display:none"
     transform="translate(-73.554161,-41.804165)"
     id="layer1">
    <rect
       y="41.804165"
       x="73.554161"
       height="132.29167"
       width="132.29167"
       id="rect1433"
       style="fill:#18a3ac;fill-opacity:1;stroke:none;stroke-width:0.396875;stroke-linecap:round" />
  </g>
  <g
     style="display:none"
     transform="translate(-73.554161,-41.804165)"
     id="g1437">
    <rect
       style="fill:#18a3ac;fill-opacity:1;stroke:none;stroke-width:0.396875;stroke-linecap:round"
       id="rect1435"
       width="132.29167"
       height="132.29167"
       x="73.554161"
       y="41.804165" />
    <path
       d="m 102.22522,67.328278 c -0.51093,0 -1.01531,0.137559 -1.51314,0.412675 -0.49783,0.275115 -0.90395,0.648487 -1.21837,1.120115 -0.30131,0.471628 -0.45197,0.982559 -0.45197,1.53279 0,0.524031 0.12446,0.98911 0.37337,1.395234 0.26202,0.406125 0.60262,0.720544 1.02185,0.943257 0.41922,0.209612 0.87775,0.314418 1.37558,0.314418 0.55024,0 1.06771,-0.131009 1.55244,-0.393021 0.48473,-0.262019 0.87775,-0.628841 1.17908,-1.100466 0.30131,-0.471631 0.45197,-0.995659 0.45197,-1.572093 0,-0.772947 -0.24236,-1.408333 -0.72709,-1.906165 -0.47163,-0.497828 -1.15287,-0.746744 -2.04372,-0.746744 z m -19.749419,1.984768 c -0.969456,0 -2.351587,0.05895 -4.146396,0.176859 -1.283875,0.07861 -2.194381,0.117907 -2.731512,0.117907 l -2.043721,-0.01965 v 29.928765 h 2.181281 c 2.607055,0.18341 4.74903,0.27511 6.425929,0.27511 4.388762,0 7.500199,-0.8057 9.334308,-2.4171 1.834109,-1.611392 2.751162,-3.884385 2.751162,-6.818968 0,-1.20527 -0.294765,-2.351593 -0.884303,-3.438953 -0.589534,-1.100463 -1.388681,-1.991323 -2.397443,-2.672563 -0.995659,-0.68124 -2.089571,-1.048063 -3.281743,-1.100463 1.034962,-0.27512 1.886512,-0.7795 2.554653,-1.51314 0.68124,-0.73365 1.179068,-1.578653 1.493487,-2.535013 0.327518,-0.96945 0.491281,-1.938913 0.491278,-2.908373 0,-2.214028 -0.812247,-3.943334 -2.436744,-5.187906 -1.611396,-1.257674 -4.048139,-1.886512 -7.310236,-1.886512 z m 74.733389,2.692209 -0.43233,1.414884 c -0.37993,1.296978 -0.66814,2.194381 -0.86465,2.692215 -0.13101,0.35372 -0.30787,0.63539 -0.53058,0.845 -0.20962,0.19651 -0.45853,0.35372 -0.74675,0.47163 -0.28822,0.1048 -0.73365,0.24236 -1.33628,0.41267 l -0.70744,0.19651 v 2.338493 h 2.90837 v 13.775488 c 0,2.14853 0.45198,3.635462 1.35594,4.460812 0.90395,0.81225 2.17472,1.21839 3.81232,1.21839 1.08736,0 2.22713,-0.18341 3.41931,-0.55025 1.20527,-0.37992 2.12887,-0.8057 2.77081,-1.27732 l -0.74675,-2.476052 c -0.37992,0.19651 -0.97601,0.38647 -1.78825,0.56988 -0.79915,0.18341 -1.48039,0.27512 -2.04372,0.27512 -0.77295,0 -1.32318,-0.0917 -1.6507,-0.27512 -0.31442,-0.18341 -0.53059,-0.58298 -0.64849,-1.19872 -0.11791,-0.62883 -0.17686,-1.690003 -0.17686,-3.183493 V 80.376657 h 6.32768 v -3.262093 h -6.32768 v -5.109309 z m 38.98792,0 -0.43233,1.414884 c -0.37992,1.296978 -0.66814,2.194381 -0.86465,2.692215 -0.13101,0.35372 -0.30787,0.63539 -0.53058,0.845 -0.20961,0.19651 -0.45853,0.35372 -0.74675,0.47163 -0.28821,0.1048 -0.73364,0.24236 -1.33628,0.41267 l -0.70744,0.19651 v 2.338493 h 2.90837 v 13.775488 c 0,2.14853 0.45198,3.635462 1.35593,4.460812 0.90396,0.81225 2.17473,1.21839 3.81233,1.21839 1.08736,0 2.22713,-0.18341 3.4193,-0.55025 1.20527,-0.37992 2.12888,-0.8057 2.77082,-1.27732 l -0.74675,-2.476052 c -0.37991,0.19651 -0.97601,0.38647 -1.78825,0.56988 -0.79915,0.18341 -1.48039,0.27512 -2.04373,0.27512 -0.77294,0 -1.32317,-0.0917 -1.65069,-0.27512 -0.31442,-0.18341 -0.53059,-0.58298 -0.64849,-1.19872 -0.11791,-0.62883 -0.17686,-1.690003 -0.17686,-3.183493 V 80.376657 h 6.32767 v -3.262093 h -6.32767 V 72.005255 Z M 81.670105,72.39828 c 2.056821,0 3.622364,0.386472 4.69663,1.159418 1.074262,0.759844 1.611397,1.912713 1.611397,3.458606 0,1.19217 -0.203063,2.207483 -0.609188,3.045933 -0.406125,0.83845 -0.962906,1.467293 -1.67035,1.886513 -0.69434,0.41923 -1.473837,0.62884 -2.33849,0.62884 -0.576434,0 -1.021859,0.007 -1.336278,0.0196 l -1.611396,0.0196 c -1.100466,0 -1.932366,-0.0459 -2.495697,-0.13756 v -9.825587 c 0.235813,-0.09171 0.766394,-0.15721 1.591744,-0.196513 0.83845,-0.0393 1.558993,-0.05895 2.161628,-0.05895 z m 97.175015,4.382204 c -1.06116,0 -2.16817,0.13101 -3.32105,0.39303 -1.13976,0.24891 -2.16163,0.53713 -3.06558,0.86465 -0.89085,0.327523 -1.50658,0.596093 -1.84721,0.805703 l 1.06117,2.829773 c 0.34061,-0.23582 0.86465,-0.47818 1.57209,-0.7271 0.72054,-0.262013 1.48693,-0.478173 2.29918,-0.648493 0.82535,-0.17031 1.55245,-0.25546 2.18129,-0.25546 1.17906,0 2.10267,0.0917 2.77081,0.27512 0.66814,0.18341 1.16597,0.53713 1.49349,1.061163 0.34061,0.52403 0.51093,1.31008 0.51093,2.358143 v 2.25988 c -1.38868,0 -2.85598,0.12446 -4.40186,0.373383 -1.5328,0.23581 -2.90838,0.59608 -4.12675,1.08081 -1.37558,0.56333 -2.44985,1.36248 -3.22279,2.397443 -0.75985,1.03497 -1.13977,2.259893 -1.13977,3.674773 0,1.283883 0.28822,2.404003 0.86466,3.360356 0.58953,0.943259 1.40178,1.670349 2.43674,2.181279 1.04807,0.51094 2.23369,0.76641 3.55686,0.76641 1.24458,0 2.43674,-0.21617 3.57651,-0.6485 1.15286,-0.43233 2.05682,-0.94981 2.71186,-1.55245 v 0.15721 c 0,0.62884 0.0852,1.08737 0.25547,1.37559 0.17031,0.28822 0.40613,0.47163 0.70744,0.55024 0.30132,0.0786 0.74675,0.11791 1.33628,0.11791 h 1.76861 V 83.913873 c 0,-1.886513 -0.32097,-3.347256 -0.96291,-4.382216 -0.64194,-1.04806 -1.53934,-1.768613 -2.69221,-2.161633 -1.15287,-0.39302 -2.59396,-0.58954 -4.32326,-0.58954 z m -58.71769,0.0196 c -1.96512,0 -3.72062,0.43888 -5.26651,1.31663 -1.5459,0.877763 -2.75772,2.168183 -3.63547,3.871286 -0.87775,1.690003 -1.31663,3.733723 -1.31663,6.131176 0,2.200933 0.34063,4.179156 1.02187,5.934656 0.68124,1.755513 1.75551,3.157296 3.22279,4.205355 1.46728,1.04806 3.32759,1.5721 5.58093,1.5721 1.97821,0 3.74027,-0.43233 5.28616,-1.29699 1.5459,-0.87775 2.75771,-2.168172 3.63547,-3.871272 0.87775,-1.703113 1.31663,-3.753386 1.31663,-6.150829 0,-2.20093 -0.34062,-4.179153 -1.02187,-5.934656 -0.68123,-1.755513 -1.7555,-3.157293 -3.22279,-4.205353 -1.46729,-1.048063 -3.33414,-1.572103 -5.60058,-1.572103 z m 22.14687,0 c -1.5328,0 -2.90838,0.22272 -4.12675,0.66814 -1.21837,0.44543 -2.18783,1.113573 -2.90837,2.004423 -0.70745,0.87776 -1.06116,1.952023 -1.06116,3.222793 0,1.716213 0.54368,3.137643 1.63104,4.264316 1.10047,1.12666 2.63981,2.109223 4.61803,2.947673 1.51969,0.64194 2.66601,1.25768 3.43895,1.847213 0.78605,0.58954 1.17907,1.29698 1.17907,2.12233 0,0.864653 -0.34716,1.539343 -1.04151,2.024073 -0.68124,0.48473 -1.66379,0.72709 -2.94768,0.72709 -0.87774,0 -1.76205,-0.0983 -2.6529,-0.29477 -0.89085,-0.19651 -1.67035,-0.41922 -2.33849,-0.66813 -0.66814,-0.26202 -1.12667,-0.47818 -1.37558,-0.64849 l -0.64849,3.222792 c 0.56333,0.40612 1.52623,0.77295 2.88872,1.10046 1.37558,0.32753 2.79047,0.49129 4.24465,0.49129 1.6245,0 3.02628,-0.24236 4.20535,-0.7271 1.19217,-0.48473 2.10268,-1.19217 2.73151,-2.122329 0.64194,-0.943253 0.96291,-2.083023 0.96291,-3.419306 0,-1.7162 -0.61573,-3.117993 -1.84721,-4.205353 -1.23147,-1.100473 -2.80356,-2.037173 -4.71628,-2.810123 -0.99565,-0.406123 -1.80135,-0.786043 -2.41709,-1.139763 -0.61574,-0.35373 -1.09392,-0.7664 -1.43454,-1.23803 -0.32752,-0.47163 -0.49128,-1.034963 -0.49128,-1.690003 0,-0.77295 0.36027,-1.38213 1.08082,-1.827563 0.73365,-0.44542 1.78825,-0.66814 3.16384,-0.66814 0.99565,0 1.95856,0.13101 2.88872,0.39303 0.93016,0.24891 1.57864,0.53058 1.94546,0.845003 l 0.70745,-3.262106 c -0.45853,-0.24891 -1.21838,-0.50438 -2.27954,-0.76639 -1.06116,-0.26202 -2.19438,-0.39303 -3.39965,-0.39303 z m -42.40721,0.35372 v 22.363063 h 4.32324 V 77.153814 Z m 20.00488,2.751173 c 1.28387,0 2.35159,0.37992 3.20314,1.139773 0.85155,0.74674 1.48039,1.77515 1.88651,3.085233 0.41923,1.29697 0.62884,2.783923 0.62884,4.460823 0,2.593953 -0.47818,4.604926 -1.43454,6.032909 -0.95635,1.42799 -2.34504,2.14198 -4.16605,2.14198 -1.25767,0 -2.31229,-0.38647 -3.16383,-1.15942 -0.85155,-0.78604 -1.48695,-1.847213 -1.90617,-3.183493 -0.41923,-1.349383 -0.62883,-2.855973 -0.62883,-4.519776 0,-2.567753 0.47161,-4.539426 1.41488,-5.915006 0.95635,-1.388683 2.34504,-2.083023 4.16605,-2.083023 z m -39.243378,5.777446 2.240234,0.0196 c 2.38434,0 4.133296,0.43233 5.246862,1.296983 1.126668,0.85155 1.689999,2.207483 1.689999,4.067793 0,2.004423 -0.602634,3.432406 -1.807905,4.283956 -1.205272,0.83845 -2.980428,1.25768 -5.325468,1.25768 -1.113566,0 -2.109225,-0.0262 -2.986978,-0.0786 -0.87775,-0.0655 -1.467287,-0.18996 -1.768603,-0.37337 V 85.800293 c 0.550231,-0.0786 1.454184,-0.11791 2.711859,-0.11791 z m 101.871648,3.065593 v 6.268729 c -0.1572,0.18341 -0.49783,0.40612 -1.02186,0.66814 -0.51093,0.24892 -1.10701,0.46508 -1.78826,0.64849 -0.68124,0.18341 -1.32972,0.27512 -1.94546,0.27512 -2.58085,0 -3.87128,-1.15287 -3.87128,-3.458613 0,-0.81225 0.21616,-1.47384 0.64849,-1.984773 0.43232,-0.51093 1.04806,-0.95635 1.8472,-1.33628 0.73364,-0.35372 1.69655,-0.62229 2.88873,-0.8057 1.20527,-0.183413 2.28609,-0.275113 3.24244,-0.275113 z"
       style="font-style:normal;font-variant:normal;font-weight:normal;font-stretch:normal;font-size:31.75px;line-height:1.25;font-family:'Merriweather Sans';-inkscape-font-specification:'Merriweather Sans';white-space:pre;shape-inside:url(#rect1441);fill:#000000;fill-opacity:1;stroke:none;stroke-width:1.26758"
       id="path1463" />
    <path
       d="m 188.51211,114.25027 -17.72836,36.27635 1.63925,3.15712 h 19.73192 v 11.41414 h 6.67848 v -11.41414 h 7.01243 v -5.16066 h -7.01243 v -13.14449 h -6.13207 l -0.54641,13.14449 H 178.1908 l 2.70175,-4.58388 14.14626,-27.13897 -4.12854,-2.54996 z m -68.87955,0.2125 c -3.05591,0 -5.75767,0.58689 -8.10526,1.76069 -2.32735,1.15356 -4.20948,2.51961 -5.64637,4.09817 l 2.82319,3.76424 c 1.1738,-1.21428 2.68152,-2.23628 4.52316,-3.06603 1.86188,-0.82976 3.75413,-1.24463 5.67672,-1.24463 2.32735,0 4.10828,0.61725 5.34279,1.85176 1.23451,1.21426 1.85176,2.87378 1.85176,4.97851 0,2.69164 -0.98154,5.47435 -2.94461,8.3481 -1.94282,2.85355 -4.48268,5.58566 -7.61954,8.19635 -3.11663,2.59043 -6.52672,4.95827 -10.23024,7.10348 l 1.00178,3.43033 h 28.68715 v -5.37316 l -18.66942,0.18214 c 3.33925,-2.06427 6.25351,-4.32078 8.74276,-6.76956 2.48925,-2.46902 4.41184,-5.01898 5.76778,-7.64992 1.37617,-2.65115 2.06427,-5.26184 2.06427,-7.83204 0,-3.46068 -1.04227,-6.28385 -3.12675,-8.46955 -2.06426,-2.20593 -5.44399,-3.30888 -10.13917,-3.30888 z m 35.09244,0.42499 c -0.5869,0.52619 -1.5482,1.20415 -2.88389,2.0339 -1.3357,0.82977 -2.79284,1.62916 -4.37138,2.39819 -1.55832,0.7488 -2.95473,1.30533 -4.18924,1.66962 l 0.75893,3.97675 c 1.84165,-0.34405 4.09816,-0.88035 6.76956,-1.60891 v 30.32643 h 6.9517 v -38.03706 z"
       style="font-style:normal;font-variant:normal;font-weight:normal;font-stretch:normal;font-size:42.3333px;line-height:1.25;font-family:'Merriweather Sans';-inkscape-font-specification:'Merriweather Sans';white-space:pre;fill:#000000;fill-opacity:1;stroke:none;stroke-width:1.46859"
       id="path1486" />
  </g>
  <g
     id="g851"
     transform="translate(-73.554161,-41.804165)"
     style="display:none">
    <rect
       y="41.804165"
       x="73.554161"
       height="132.29167"
       width="132.29167"
       id="rect845"
       style="fill:#18a3ac;fill-opacity:1;stroke:none;stroke-width:0.396875;stroke-linecap:round" />
    <text
       xml:space="preserve"
       id="text853"
       style="font-style:normal;font-weight:normal;font-size:38.80559999999999832px;line-height:1.25;font-family:sans-serif;white-space:pre;shape-inside:url(#rect855);fill:#000000;fill-opacity:1;stroke:none;"
       transform="translate(-2.9104167,-42.333329)"><tspan
         x="73.554688"
         y="143.35274"><tspan
           style="font-style:normal;font-variant:normal;font-weight:normal;font-stretch:normal;font-size:38.8056px;font-family:'Merriweather Sans';-inkscape-font-specification:'Merriweather Sans'">Biostat</tspan></tspan></text>
    <text
       xml:space="preserve"
       id="text859"
       style="font-style:normal;font-weight:normal;font-size:49.38889999999999958px;line-height:1.25;font-family:sans-serif;white-space:pre;shape-inside:url(#rect861);fill:#000000;fill-opacity:1;stroke:none;"><tspan
         x="73.554688"
         y="153.00821"><tspan
           style="font-style:normal;font-variant:normal;font-weight:normal;font-stretch:normal;font-size:42.3333px;font-family:'Merriweather Sans';-inkscape-font-specification:'Merriweather Sans'">213/4</tspan></tspan></text>
  </g>
  <g
     id="g1507"
     transform="translate(-73.554161,-41.804165)"
     style="display:none">
    <path
       transform="matrix(0.26458333,0,0,0.26458333,73.554161,41.804165)"
       d="m 0,0 v 105.00977 l 7.7246094,0.0742 c 2.0301013,0 5.4717776,-0.1482 10.3242186,-0.44531 6.78353,-0.44564 12.005836,-0.66797 15.669922,-0.66797 12.329186,0 21.540544,2.37745 27.630859,7.13086 6.139832,4.7039 9.208985,11.23944 9.208985,19.60742 1.1e-5,3.66411 -0.619559,7.32813 -1.857422,10.99219 -1.188355,3.61459 -3.069766,6.80723 -5.644531,9.58008 -2.525258,2.77281 -5.74263,4.67893 -9.654297,5.71875 4.505847,0.19805 8.639223,1.58539 12.402344,4.16016 3.812642,2.57476 6.834339,5.94233 9.0625,10.10156 2.228174,4.10971 3.341796,8.44074 3.341796,12.99609 0,11.09134 -3.466372,19.68314 -10.398437,25.77344 -6.932066,6.09033 -18.69185,9.13477 -35.279297,9.13477 -6.337886,0 -14.433673,-0.34586 -24.2871094,-1.03907 H 0 V 500 h 500 v -77.14844 h -26.50391 v 43.14063 h -25.24218 v -43.14063 h -74.57618 l -6.19531,-11.93164 67.00391,-137.10742 h 9.06445 l 15.60352,9.63672 -53.4668,102.57226 -10.21094,17.32618 h 52.77735 l 2.0664,-49.67969 h 23.17578 v 49.67969 H 500 V 212.4082 c -2.42623,1.7825 -5.91731,3.39221 -10.47266,4.82813 -4.50584,1.38648 -8.81412,2.07812 -12.92382,2.07812 -6.18936,0 -10.99167,-1.53359 -14.40821,-4.60351 -3.4165,-3.11944 -5.125,-8.73895 -5.125,-16.85938 v -52.0664 h -10.99219 v -8.83789 l 2.67383,-0.74219 c 2.2777,-0.64369 3.96149,-1.16445 5.05078,-1.56055 1.08934,-0.44564 2.03004,-1.03853 2.82227,-1.78125 0.84174,-0.79223 1.5107,-1.85842 2.00586,-3.19531 0.74271,-1.88158 1.83166,-5.27187 3.26758,-10.17383 l 1.63476,-5.34766 h 9.80274 v 19.31055 h 23.91601 v 12.32813 h -23.91601 v 42.85546 c 0,5.64469 0.22232,9.65653 0.66797,12.03321 0.4456,2.3272 1.26281,3.8361 2.45117,4.52929 1.23787,0.69325 3.31888,1.04102 6.24023,1.04102 2.12916,0 4.70225,-0.34781 7.72266,-1.04102 3.06988,-0.69319 5.32388,-1.41158 6.75976,-2.15429 L 500,212.4082 V 0 Z m 108.36328,96.46875 c 3.36699,0 5.94207,0.940711 7.72461,2.822266 1.83205,1.881574 2.74805,4.283704 2.74805,7.205074 0,2.17865 -0.57018,4.15887 -1.70899,5.94141 -1.13888,1.78252 -2.62498,3.16985 -4.45703,4.16016 -1.83205,0.99028 -3.78754,1.48437 -5.86719,1.48437 -1.88156,0 -3.61476,-0.39526 -5.19921,-1.1875 -1.5845,-0.84175 -2.871022,-2.03144 -3.861332,-3.56641 -0.940763,-1.53494 -1.41211,-3.29284 -1.41211,-5.27343 0,-2.07962 0.570176,-4.01044 1.708984,-5.79297 1.18836,-1.78253 2.723908,-3.192618 4.605468,-4.232423 1.88156,-1.039809 3.78768,-1.560547 5.71875,-1.560547 z m 207.8125,17.67773 h 9.80469 v 19.31055 h 23.91601 v 12.32813 h -23.91601 v 42.85546 c 0,5.64469 0.22232,9.65653 0.66797,12.03321 0.4456,2.3272 1.26281,3.8361 2.45117,4.52929 1.23787,0.69325 3.31689,1.04102 6.23828,1.04102 2.12912,0 4.7042,-0.34781 7.72461,-1.04102 3.06988,-0.69319 5.32385,-1.41158 6.75977,-2.15429 l 2.82226,9.35937 c -2.42623,1.7825 -5.91731,3.39221 -10.47265,4.82813 -4.50588,1.38648 -8.81413,2.07812 -12.92383,2.07812 -6.18936,0 -10.9917,-1.53359 -14.40821,-4.60351 -3.41654,-3.11944 -5.125,-8.73895 -5.125,-16.85938 v -52.0664 h -10.99218 v -8.83789 l 2.67382,-0.74219 c 2.27766,-0.64369 3.96145,-1.16445 5.05079,-1.56055 1.08933,-0.44564 2.03,-1.03853 2.82226,-1.78125 0.84174,-0.79223 1.5107,-1.85842 2.00586,-3.19531 0.74272,-1.88158 1.83162,-5.27187 3.26758,-10.17383 z m -285.501952,1.48438 c -2.277675,0 -5.000977,0.0741 -8.169922,0.22266 -3.119433,0.14854 -5.124363,0.39556 -6.015625,0.74218 v 37.13672 c 2.129125,0.34643 5.274352,0.51953 9.433594,0.51953 l 6.089844,-0.0742 c 1.188355,-0.0476 2.872133,-0.0742 5.050781,-0.0742 3.26798,0 6.213613,-0.79051 8.837891,-2.375 2.673804,-1.58446 4.777539,-3.96192 6.3125,-7.13086 1.53496,-3.16895 2.302734,-7.00588 2.302734,-11.51172 0,-5.84275 -2.029641,-10.20042 -6.089844,-13.07227 -4.060218,-2.92137 -9.978141,-4.38281 -17.751953,-4.38281 z m 367.275392,16.5625 c 6.53594,0 11.98254,0.74309 16.33984,2.22852 4.35731,1.48541 7.74955,4.20875 10.17578,8.16992 2.42623,3.91166 3.64063,9.43237 3.64063,16.5625 v 60.16015 h -6.68555 c -2.22814,0 -3.91193,-0.14824 -5.05078,-0.44531 -1.13881,-0.29711 -2.03014,-0.98879 -2.67383,-2.07812 -0.64354,-1.08934 -0.96484,-2.82251 -0.96484,-5.19922 v -0.59571 c -2.47574,2.2777 -5.89274,4.23514 -10.25,5.86914 -4.30779,1.63401 -8.81365,2.44922 -13.51758,2.44922 -5.00096,0 -9.48215,-0.96537 -13.44336,-2.89648 -3.91166,-1.93108 -6.98084,-4.67907 -9.20898,-8.24414 -2.17867,-3.61456 -3.26758,-7.84675 -3.26758,-12.69922 0,-5.34758 1.43477,-9.97697 4.30664,-13.88867 2.92135,-3.91167 6.9826,-6.93338 12.18164,-9.0625 4.60486,-1.83205 9.80244,-3.19274 15.5957,-4.08399 5.8427,-0.94081 11.39013,-1.41211 16.63867,-1.41211 v -8.54101 c 10e-6,-3.96118 -0.64429,-6.93153 -1.93164,-8.91211 -1.23787,-1.9806 -3.11927,-3.31852 -5.64453,-4.01172 -2.52525,-0.69324 -6.01636,-1.03906 -10.47265,-1.03906 -2.37672,0 -5.12471,0.32115 -8.24414,0.96484 -3.06993,0.64373 -5.96616,1.46089 -8.68946,2.45117 -2.67379,0.9408 -4.65601,1.85676 -5.94336,2.74805 l -4.00976,-10.69531 c 1.28742,-0.79223 3.61543,-1.80704 6.98242,-3.04492 3.4165,-1.23788 7.27818,-2.32682 11.58594,-3.26758 4.35734,-0.99031 8.5401,-1.48633 12.55078,-1.48633 z m -221.92383,0.0742 c 8.56607,0 15.62231,1.98022 21.16797,5.9414 5.54566,3.96118 9.60496,9.25953 12.17969,15.89454 2.5748,6.63497 3.86133,14.11316 3.86133,22.43164 -10e-6,9.0612 -1.65713,16.80913 -4.97461,23.24609 -3.31752,6.43691 -7.89747,11.31533 -13.74024,14.63281 -5.84273,3.26801 -12.50377,4.90039 -19.98047,4.90039 -8.51656,0 -15.54812,-1.98023 -21.09375,-5.9414 -5.54562,-3.96117 -9.60492,-9.25952 -12.17969,-15.89453 -2.57475,-6.63497 -3.86132,-14.1112 -3.86132,-22.42969 0,-9.06124 1.65713,-16.78642 4.97461,-23.17383 3.31748,-6.43692 7.89746,-11.31333 13.74023,-14.63086 5.84273,-3.31748 12.47903,-4.97656 19.90625,-4.97656 z m 83.70508,0 c 4.55535,0 8.83698,0.49601 12.84765,1.48633 4.01069,0.99027 6.88221,1.95572 8.61524,2.89648 l -2.67383,12.32813 c -1.38641,-1.18837 -3.836,-2.2526 -7.35156,-3.19336 -3.51557,-0.99032 -7.15488,-1.48438 -10.91797,-1.48438 -5.19908,0 -9.18613,0.84191 -11.95898,2.52539 -2.72334,1.68353 -4.08399,3.98487 -4.08399,6.90625 0,2.47574 0.61955,4.60614 1.85742,6.38867 1.28739,1.78254 3.09467,3.34081 5.42188,4.67774 2.3272,1.33689 5.37168,2.77364 9.13476,4.30859 7.22918,2.92139 13.16985,6.46183 17.82422,10.6211 4.65442,4.1097 6.98242,9.4081 6.98242,15.89453 0,5.05052 -1.21244,9.35682 -3.63867,12.92187 -2.37668,3.51556 -5.81838,6.18944 -10.32422,8.02149 -4.45632,1.83208 -9.75468,2.74804 -15.89453,2.74804 -5.49611,0 -10.84392,-0.61756 -16.04297,-1.85547 -5.14956,-1.23783 -8.78885,-2.62521 -10.91796,-4.16015 l 2.45117,-12.17969 c 0.94076,0.64369 2.67396,1.46086 5.19922,2.45117 2.52525,0.94076 5.47089,1.78073 8.83789,2.52344 3.36699,0.74256 6.7099,1.11523 10.02734,1.11523 4.8525,0 8.56587,-0.91599 11.14062,-2.74804 2.62432,-1.83205 3.93555,-4.38241 3.93555,-7.65039 0,-3.11944 -1.48418,-5.7933 -4.45508,-8.02149 -2.92134,-2.22815 -7.25433,-4.55619 -12.99804,-6.98242 -7.47674,-3.16894 -13.29387,-6.88238 -17.45313,-11.14062 -4.10971,-4.2583 -6.16601,-9.63072 -6.16601,-16.11719 0,-4.80291 1.3379,-8.86217 4.01171,-12.17969 2.72331,-3.36699 6.38733,-5.89266 10.99219,-7.57617 4.60487,-1.68348 9.8044,-2.52539 15.59766,-2.52539 z m -160.279298,1.33789 h 16.339848 v 84.52148 H 99.451172 Z m 75.607418,10.39844 c -6.88255,0 -12.12959,2.62252 -15.74414,7.87109 -3.56511,5.19904 -5.34765,12.65253 -5.34765,22.35742 0,6.28839 0.79246,11.982 2.37695,17.08203 1.58445,5.05051 3.98467,9.06039 7.20313,12.03125 3.2184,2.92139 7.20558,4.38282 11.95898,4.38282 6.88256,0 12.12959,-2.69858 15.74414,-8.09571 3.61459,-5.3971 5.42188,-12.99686 5.42188,-22.80078 0,-6.33789 -0.79052,-11.95939 -2.375,-16.86133 -1.53495,-4.95149 -3.91241,-8.83783 -7.13086,-11.66015 -3.21846,-2.87189 -7.255,-4.30664 -12.10743,-4.30664 z M 26.738281,165.83984 c -4.753417,0 -8.170387,0.14825 -10.25,0.44532 v 39.14062 c 1.138832,0.6932 3.368067,1.16455 6.685547,1.41211 3.317492,0.19805 7.080309,0.29688 11.289063,0.29688 8.863143,0 15.571594,-1.58497 20.126953,-4.75391 4.555355,-3.21846 6.833984,-8.61563 6.833984,-16.19141 0,-7.03109 -2.130399,-12.15654 -6.388672,-15.375 -4.208753,-3.26798 -10.818399,-4.90039 -19.830078,-4.90039 z m 385.027339,11.58594 c -3.61454,0 -7.7005,0.34585 -12.25585,1.03906 -4.50588,0.69321 -8.14516,1.70803 -10.91797,3.04493 -3.02037,1.43595 -5.34847,3.1197 -6.98242,5.05078 -1.63401,1.93108 -2.44922,4.43203 -2.44922,7.50195 0,8.71462 4.87646,13.07227 14.63086,13.07227 2.3272,0 4.77875,-0.34782 7.35351,-1.04102 2.5748,-0.6932 4.82674,-1.50842 6.75781,-2.44922 1.98059,-0.99031 3.26915,-1.83219 3.86328,-2.52539 z M 174.1543,274.61523 c 17.74556,0 30.52033,4.16849 38.32226,12.50586 7.87835,8.26092 11.81641,18.93199 11.81641,32.01172 0,9.71414 -2.59951,19.58147 -7.80078,29.60157 -5.12482,9.9437 -12.39259,19.58038 -21.80078,28.9121 -9.40819,9.25524 -20.42219,17.78398 -33.04297,25.58594 l 70.5625,-0.68945 v 20.30859 H 123.78711 L 120,409.88672 c 13.99756,-8.10788 26.88663,-17.05706 38.66602,-26.84766 11.85584,-9.86717 21.45393,-20.19344 28.79687,-30.97851 7.41948,-10.86142 11.13086,-21.37766 11.13086,-31.55078 0,-7.95489 -2.33414,-14.22708 -7,-18.81641 -4.66586,-4.66587 -11.39708,-7 -20.19336,-7 -7.26648,0 -14.41805,1.56898 -21.45508,4.70508 -6.96053,3.13606 -12.65929,6.99848 -17.0957,11.58789 l -10.66992,-14.22656 c 5.43076,-5.96622 12.54551,-11.13033 21.34179,-15.49024 8.87279,-4.43641 19.08292,-6.6543 30.63282,-6.6543 z m 132.63281,1.60547 11.47461,2.86914 V 422.85156 H 291.98633 V 308.23242 c -10.09663,2.75361 -18.62537,4.77973 -25.58594,6.08008 l -2.86719,-15.0293 c 4.66587,-1.37684 9.94232,-3.48043 15.83203,-6.31054 5.96614,-2.90657 11.47317,-5.92832 16.52149,-9.06446 5.04828,-3.13606 8.68218,-5.69875 10.90039,-7.6875 z"
       style="fill:#18a3ac;fill-opacity:1;stroke:none;stroke-width:1.5;stroke-linecap:round"
       id="rect1501" />
  </g>
  <g
     style="display:none"
     transform="translate(-73.554161,-41.804165)"
     id="g877">
    <rect
       style="fill:#18a3ac;fill-opacity:1;stroke:none;stroke-width:0.396875;stroke-linecap:round"
       id="rect867"
       width="132.29167"
       height="132.29167"
       x="73.554161"
       y="41.804165" />
    <path
       id="path883"
       style="font-style:normal;font-variant:normal;font-weight:normal;font-stretch:normal;font-size:38.8056px;line-height:1.25;font-family:'Merriweather Sans';-inkscape-font-specification:'Merriweather Sans';white-space:pre;fill:#000000;fill-opacity:1;stroke:none;stroke-width:3.91979"
       d="m 108.36328,107.1543 c -1.93106,0 -3.83717,0.51878 -5.71875,1.55859 -1.88157,1.03981 -3.417121,2.45184 -4.605468,4.23438 -1.138824,1.78253 -1.708984,3.71334 -1.708984,5.79296 0,1.98059 0.471337,3.73848 1.41211,5.27344 0.990291,1.53496 2.276832,2.7227 3.861332,3.56445 1.58442,0.79222 3.31764,1.18946 5.19921,1.18946 2.07963,0 4.03513,-0.49604 5.86719,-1.48633 1.83204,-0.99029 3.31819,-2.37567 4.45703,-4.1582 1.13883,-1.78253 1.70899,-3.76472 1.70899,-5.94336 0,-2.92139 -0.91601,-5.32158 -2.74805,-7.20313 -1.78253,-1.88157 -4.3576,-2.82226 -7.72461,-2.82226 z m -74.64453,7.50195 c -3.664093,0 -8.886403,0.22234 -15.669922,0.66797 -4.852447,0.29709 -8.2941134,0.44531 -10.3242186,0.44531 L 0,115.69531 V 228.8125 h 8.2441406 c 9.8534354,0.69322 17.9492194,1.03906 24.2871094,1.03906 16.587439,0 28.347228,-3.04446 35.279297,-9.13476 6.932064,-6.09033 10.398437,-14.68211 10.398437,-25.77344 0,-4.55536 -1.113631,-8.88834 -3.341796,-12.99805 -2.228163,-4.15925 -5.249864,-7.52483 -9.0625,-10.09961 -3.763122,-2.57475 -7.896502,-3.96208 -12.402344,-4.16015 3.911667,-1.03982 7.129046,-2.94593 9.654297,-5.71875 2.574765,-2.77283 4.456174,-5.96745 5.644531,-9.58203 1.237868,-3.66408 1.857422,-7.32809 1.857422,-10.99219 0,-8.36799 -3.069155,-14.90353 -9.208985,-19.60742 -6.090315,-4.75341 -15.301685,-7.12891 -27.630859,-7.12891 z m 282.45703,10.17383 -1.63281,5.34765 c -1.43592,4.90195 -2.52485,8.29421 -3.26758,10.17579 -0.49514,1.3369 -1.16411,2.40112 -2.00586,3.19336 -0.79224,0.74272 -1.73293,1.33757 -2.82226,1.7832 -1.08931,0.39611 -2.77309,0.91489 -5.05079,1.55859 l -2.67382,0.74414 v 8.83789 h 10.99218 v 52.06446 c 0,8.12043 1.70849,13.73998 5.125,16.85937 3.41652,3.06994 8.21888,4.60547 14.40821,4.60547 4.10973,0 8.41797,-0.69367 12.92383,-2.08008 4.55536,-1.43594 8.04642,-3.04557 10.47265,-4.82812 l -2.82226,-9.35742 c -1.43592,0.74271 -3.68986,1.46109 -6.75977,2.15429 -3.0204,0.69323 -5.59545,1.03906 -7.72461,1.03906 -2.92135,0 -5.00041,-0.34583 -6.23828,-1.03906 -1.18838,-0.6932 -2.00557,-2.20405 -2.45117,-4.53125 -0.44563,-2.37669 -0.66797,-6.38656 -0.66797,-12.03125 V 156.4707 h 23.91601 v -12.33008 h -23.91601 v -19.31054 z m 147.35742,0 -1.63476,5.34765 c -1.43592,4.90195 -2.52483,8.29421 -3.26758,10.17579 -0.49514,1.3369 -1.16413,2.40112 -2.00586,3.19336 -0.79224,0.74272 -1.73293,1.33757 -2.82227,1.7832 -1.08933,0.39611 -2.77311,0.91489 -5.05078,1.55859 l -2.67383,0.74414 v 8.83789 h 10.99219 v 52.06446 c 0,8.12043 1.70851,13.73998 5.125,16.85937 3.41654,3.06994 8.21888,4.60547 14.40821,4.60547 4.10973,0 8.418,-0.69367 12.92382,-2.08008 4.55537,-1.43594 8.04643,-3.04557 10.47266,-4.82812 l -2.82227,-9.35742 c -1.43591,0.74271 -3.68985,1.46109 -6.75976,2.15429 -3.0204,0.69323 -5.59352,1.03906 -7.72266,1.03906 -2.92137,0 -5.00236,-0.34583 -6.24023,-1.03906 -1.18836,-0.6932 -2.00554,-2.20405 -2.45117,-4.53125 -0.44564,-2.37669 -0.66797,-6.38656 -0.66797,-12.03125 V 156.4707 h 23.91601 v -12.33008 h -23.91601 v -19.31054 z m -432.859372,1.48633 c 7.773818,0 13.691743,1.4595 17.751953,4.38086 4.060211,2.87186 6.089844,7.22952 6.089844,13.07226 0,4.50584 -0.767775,8.34472 -2.302734,11.51367 -1.534957,3.16894 -3.638704,5.54443 -6.3125,7.12891 -2.624283,1.58448 -5.569917,2.37695 -8.837891,2.37695 -2.178648,0 -3.862427,0.0246 -5.050781,0.0742 l -6.089844,0.0742 c -4.159242,0 -7.30446,-0.17294 -9.433594,-0.51953 v -37.13672 c 0.891266,-0.34671 2.896195,-0.59375 6.015625,-0.74219 3.168945,-0.14843 5.892245,-0.22265 8.169922,-0.22265 z m 367.275392,16.5625 c -4.01068,0 -8.19349,0.49408 -12.55078,1.48437 -4.30781,0.9408 -8.16945,2.03167 -11.58594,3.26953 -3.367,1.23787 -5.69501,2.25269 -6.98242,3.04492 l 4.00976,10.69532 c 1.28739,-0.89128 3.26955,-1.80728 5.94336,-2.74805 2.7233,-0.99029 5.61952,-1.80747 8.68946,-2.45117 3.11944,-0.64368 5.86747,-0.9668 8.24414,-0.9668 4.45636,0 7.9474,0.34782 10.47265,1.04102 2.52523,0.69319 4.40666,2.02915 5.64453,4.00976 1.28739,1.98059 1.93164,4.95289 1.93164,8.91407 v 8.54101 c -5.24857,0 -10.79595,0.46938 -16.63867,1.41016 -5.79323,0.89128 -10.99085,2.25391 -15.5957,4.08593 -5.19907,2.12915 -9.26029,5.1489 -12.18164,9.06055 -2.87186,3.91168 -4.30664,8.54108 -4.30664,13.88867 0,4.85245 1.08896,9.08659 3.26758,12.70118 2.22818,3.56503 5.29732,6.31305 9.20898,8.24414 3.96117,1.93108 8.44234,2.89648 13.44336,2.89648 4.70387,0 9.2098,-0.81718 13.51758,-2.45117 4.35732,-1.63399 7.77428,-3.58952 10.25,-5.86719 v 0.59375 c 0,2.37669 0.32114,4.10988 0.96484,5.19922 0.64371,1.08933 1.53498,1.78301 2.67383,2.08008 1.13882,0.29709 2.82262,0.44531 5.05078,0.44531 h 6.68555 v -60.16016 c 0,-7.1301 -1.2144,-12.65082 -3.64063,-16.5625 -2.42623,-3.96117 -5.81849,-6.68445 -10.17578,-8.16992 -4.35731,-1.48544 -9.8039,-2.22851 -16.33984,-2.22851 z m -221.92383,0.0742 c -7.4272,0 -14.0635,1.65908 -19.90625,4.97657 -5.84272,3.31749 -10.42274,8.19393 -13.74023,14.63086 -3.3175,6.38738 -4.97461,14.1126 -4.97461,23.17383 0,8.31847 1.28656,15.7947 3.86132,22.42968 2.57475,6.63496 6.63402,11.93332 12.17969,15.89453 5.54565,3.96118 12.57722,5.94141 21.09375,5.94141 7.47674,0 14.13775,-1.63436 19.98047,-4.90234 5.84275,-3.3175 10.42274,-8.19396 13.74024,-14.63086 3.31749,-6.43693 4.9746,-14.18686 4.97461,-23.24805 0,-8.31848 -1.28657,-15.79471 -3.86133,-22.42969 -2.57477,-6.63498 -6.63402,-11.93336 -12.17969,-15.89453 -5.54565,-3.9612 -12.60192,-5.94141 -21.16797,-5.94141 z m 83.70508,0 c -5.79321,1e-5 -10.99278,0.84188 -15.59766,2.5254 -4.60487,1.68349 -8.26886,4.20916 -10.99219,7.57617 -2.67378,3.31749 -4.01171,7.37675 -4.01171,12.17969 0,6.48642 2.05628,11.85892 6.16601,16.11718 4.15925,4.25827 9.97642,7.97167 17.45313,11.14063 5.74369,2.42621 10.07665,4.75423 12.99804,6.98242 2.97086,2.22816 4.45508,4.90207 4.45508,8.02148 0,3.268 -1.31129,5.81837 -3.93555,7.65039 -2.57479,1.83205 -6.28819,2.74805 -11.14062,2.74805 -3.31749,0 -6.66034,-0.37251 -10.02734,-1.11523 -3.36698,-0.74272 -6.31264,-1.58462 -8.83789,-2.52539 -2.52528,-0.9903 -4.25845,-1.80747 -5.19922,-2.45118 l -2.45117,12.18165 c 2.12913,1.53496 5.76843,2.92033 10.91796,4.1582 5.19905,1.23787 10.54681,1.85742 16.04297,1.85742 6.13982,0 11.43819,-0.91598 15.89453,-2.74805 4.50583,-1.83203 7.9475,-4.50595 10.32422,-8.02148 2.42621,-3.56507 3.63867,-7.87332 3.63867,-12.92383 0,-6.48645 -2.32806,-11.7848 -6.98242,-15.89453 -4.65438,-4.15922 -10.59504,-7.69776 -17.82422,-10.61914 -3.76312,-1.53496 -6.80758,-2.97172 -9.13476,-4.30859 -2.32718,-1.33691 -4.13449,-2.89716 -5.42188,-4.67969 -1.23787,-1.78254 -1.85742,-3.91099 -1.85742,-6.38672 0,-2.92138 1.36068,-5.22471 4.08399,-6.9082 2.77283,-1.6835 6.75996,-2.52539 11.95898,-2.52539 3.76315,0 7.40243,0.49603 10.91797,1.48632 3.51554,0.94078 5.96515,2.00502 7.35156,3.19336 l 2.67383,-12.32812 c -1.73299,-0.9408 -4.60453,-1.90619 -8.61524,-2.89649 -4.01068,-0.99029 -8.29229,-1.48633 -12.84765,-1.48633 z m -160.279298,1.33594 v 84.52344 h 16.339848 v -84.52344 z m 75.607418,10.39844 c 4.85246,0 8.88898,1.43673 12.10743,4.30859 3.21844,2.82235 5.59589,6.7087 7.13086,11.66016 1.58447,4.90197 2.375,10.52149 2.375,16.85937 0,9.80392 -1.80729,17.40562 -5.42188,22.80274 -3.61456,5.39711 -8.86157,8.0957 -15.74414,8.0957 -4.75341,0 -8.74054,-1.46143 -11.95898,-4.38281 -3.21845,-2.97088 -5.61865,-6.98075 -7.20313,-12.03125 -1.58448,-5.10002 -2.37695,-10.79561 -2.37695,-17.08398 0,-9.7049 1.7826,-17.15644 5.34765,-22.35547 3.61459,-5.24859 8.8616,-7.87305 15.74414,-7.87305 z m -148.320309,21.83594 8.466797,0.0742 c 9.011684,0 15.621322,1.63437 19.830078,4.90234 4.258268,3.21845 6.388672,8.34391 6.388672,15.375 0,7.57575 -2.278628,12.97293 -6.833984,16.19141 -4.555359,3.16893 -11.263813,4.7539 -20.126953,4.7539 v -0.002 c -4.208756,0 -7.971575,-0.0988 -11.289063,-0.29688 -3.317488,-0.24757 -5.546707,-0.71695 -6.685547,-1.41015 v -39.14258 c 2.07962,-0.29709 5.496584,-0.44531 10.25,-0.44531 z m 385.027339,11.58789 v 23.6914 c -0.59416,0.69321 -1.88268,1.5351 -3.86328,2.52539 -1.93106,0.9408 -4.18304,1.75798 -6.75781,2.45118 -2.57479,0.6932 -5.02633,1.04101 -7.35351,1.04101 -9.75441,0 -14.63086,-4.35768 -14.63086,-13.07226 0,-3.06992 0.81522,-5.57086 2.44922,-7.50196 1.63399,-1.93106 3.96202,-3.61486 6.98242,-5.05078 2.77281,-1.3369 6.41211,-2.35172 10.91797,-3.04492 4.55536,-0.69323 8.64129,-1.03906 12.25585,-1.03906 z"
       transform="matrix(0.26458333,0,0,0.26458333,73.554161,41.804165)" />
    <path
       id="path992"
       style="font-style:normal;font-variant:normal;font-weight:normal;font-stretch:normal;font-size:42.3333px;line-height:1.25;font-family:'Merriweather Sans';-inkscape-font-specification:'Merriweather Sans';white-space:pre;fill:#000000;fill-opacity:1;stroke:none;stroke-width:3.64018"
       d="m 386.00391,270 -42.88868,147.62891 h 14.89844 L 400.90234,270 Z m 71.03125,22.57422 -43.94336,89.91601 4.06445,7.82618 h 48.9082 v 28.29101 h 16.55469 V 390.31641 H 500 v -12.79102 h -17.38086 v -32.58203 h -15.19922 l -1.35547,32.58203 h -34.61133 l 6.69532,-11.36328 35.06445,-67.26758 -10.23242,-6.32031 z m -321.51954,0.52539 c -7.57462,0 -14.27093,1.45578 -20.08984,4.36523 -5.76874,2.85929 -10.43452,6.24546 -13.99609,10.15821 l 6.99804,9.33007 c 2.90946,-3.00981 6.6461,-5.54294 11.21094,-7.5996 4.61498,-2.0567 9.30481,-3.08594 14.07031,-3.08594 5.76875,0 10.18421,1.52989 13.24414,4.58984 3.05996,3.00979 4.58985,7.12291 4.58985,12.33985 0,6.67169 -2.43302,13.57021 -7.29883,20.69335 -4.81565,7.07299 -11.11145,13.84538 -18.88672,20.31641 -7.7251,6.42089 -16.17758,12.2882 -25.35742,17.60547 l 2.48242,8.50391 h 71.10742 v -13.31836 l -46.27539,0.45117 c 8.27689,-5.1166 15.49987,-10.70955 21.66993,-16.7793 6.17005,-6.11988 10.93594,-12.43974 14.29687,-18.96094 3.41107,-6.57133 5.11523,-13.04336 5.11523,-19.41406 0,-8.57789 -2.58321,-15.57651 -7.75,-20.99414 -5.11662,-5.46777 -13.49303,-8.20117 -25.13086,-8.20117 z m 157.41211,0.22656 c -5.91924,0 -11.76446,1.22952 -17.5332,3.6875 -5.71858,2.45801 -10.3824,5.16538 -13.99414,8.125 l 6.4707,9.40625 c 3.41108,-2.40781 6.99753,-4.36426 10.75977,-5.86914 3.76224,-1.50491 8.05154,-2.25781 12.86719,-2.25781 5.31726,0 9.60463,1.27958 12.86523,3.83789 3.2606,2.50817 4.89258,6.42101 4.89258,11.73828 0,4.41434 -1.57997,8.45137 -4.74024,12.11328 -3.11012,3.66189 -7.49955,6.5975 -13.16796,8.80469 -4.01306,1.75572 -8.57869,3.13541 -13.69532,4.13867 l 3.46094,11.36133 6.84766,-1.6543 c 1.80586,-0.10028 3.08543,-0.15039 3.83789,-0.15039 7.77527,0 13.54442,1.85436 17.30664,5.56641 3.81241,3.71207 5.7168,8.7543 5.7168,15.125 0,4.96615 -1.57997,9.47977 -4.74024,13.54297 -3.16029,4.11338 -7.59978,7.34936 -13.31836,9.70703 -5.66843,2.40781 -12.13846,3.61133 -19.41211,3.61133 -3.96286,0 -8.07598,-0.42456 -12.33984,-1.27735 l 0.0742,11.43555 c 5.76877,1.00326 11.0613,1.50586 15.87695,1.50586 10.23325,0 19.18832,-1.83028 26.86328,-5.49219 7.67496,-3.61172 13.56828,-8.45369 17.68164,-14.52344 4.11336,-6.01957 6.16992,-12.58974 6.16992,-19.71289 0,-4.41431 -1.05329,-8.57944 -3.16015,-12.49218 -2.10684,-3.96286 -5.19264,-7.273 -9.25586,-9.93164 -4.06319,-2.70882 -8.85316,-4.3889 -14.3711,-5.04102 6.17006,-2.90946 11.16223,-6.8223 14.97461,-11.73828 3.81239,-4.91596 5.71875,-10.45883 5.71875,-16.62891 0,-5.76872 -1.47985,-10.66075 -4.43945,-14.67383 -2.90945,-4.06316 -6.8483,-7.12297 -11.81445,-9.17968 -4.96612,-2.05667 -10.43293,-3.08399 -16.40235,-3.08399 z m -70.42968,0.82813 c -1.45474,1.30424 -3.83768,2.98432 -7.14844,5.04101 -3.31077,2.0567 -6.92127,4.03717 -10.83399,5.94336 -3.86255,1.85603 -7.32483,3.23574 -10.38476,4.13867 l 1.88086,9.85743 c 4.56481,-0.85277 10.15776,-2.18243 16.7793,-3.98829 v 75.16993 h 17.23242 v -94.28125 z"
       transform="matrix(0.26458333,0,0,0.26458333,73.554161,41.804165)" />
  </g>
  <g
     id="g920"
     transform="translate(-73.554161,-41.804165)"
     style="display:inline">
    <path
       id="rect898"
       style="fill:#18a3ac;fill-opacity:1;stroke:none;stroke-width:1.5;stroke-linecap:round"
       d="m 0,0 v 115.69531 l 7.7246094,0.0742 c 2.0301045,0 5.4717716,-0.14822 10.3242186,-0.44531 6.783519,-0.44563 12.005829,-0.66797 15.669922,-0.66797 12.329174,0 21.540544,2.3755 27.630859,7.12891 6.13983,4.70389 9.208985,11.23943 9.208985,19.60742 0,3.6641 -0.619554,7.32811 -1.857422,10.99219 -1.188357,3.61458 -3.069766,6.8092 -5.644531,9.58203 -2.525251,2.77282 -5.74263,4.67893 -9.654297,5.71875 4.505842,0.19807 8.639222,1.5854 12.402344,4.16015 3.812629,2.57478 6.834337,5.94036 9.0625,10.09961 2.228158,4.10971 3.341796,8.44269 3.341796,12.99805 0,11.09133 -3.466373,19.68311 -10.398437,25.77344 -6.932069,6.0903 -18.691858,9.13476 -35.279297,9.13476 -6.33789,0 -14.433674,-0.34584 -24.2871094,-1.03906 H 0 V 500 H 500 V 390.31641 h -17.38086 v 28.29101 h -16.55469 v -28.29101 h -48.9082 l -4.06445,-7.82618 43.94336,-89.91601 h 5.94531 l 10.23242,6.32031 -35.06445,67.26758 -6.69532,11.36328 h 34.61133 l 1.35547,-32.58203 h 15.19922 v 32.58203 H 500 V 223.0918 c -2.42623,1.78255 -5.91729,3.39218 -10.47266,4.82812 -4.50582,1.38641 -8.81409,2.08008 -12.92382,2.08008 -6.18933,0 -10.99167,-1.53553 -14.40821,-4.60547 -3.41649,-3.11939 -5.125,-8.73894 -5.125,-16.85937 V 156.4707 h -10.99219 v -8.83789 l 2.67383,-0.74414 c 2.27767,-0.6437 3.96145,-1.16248 5.05078,-1.55859 1.08934,-0.44563 2.03003,-1.04049 2.82227,-1.7832 0.84173,-0.79224 1.51072,-1.85646 2.00586,-3.19336 0.74275,-1.88158 1.83166,-5.27384 3.26758,-10.17579 l 1.63476,-5.34765 h 9.80274 v 19.31054 h 23.91601 v 12.33008 h -23.91601 v 42.85547 c 0,5.64469 0.22233,9.65456 0.66797,12.03125 0.44563,2.3272 1.26281,3.83805 2.45117,4.53125 1.23787,0.69323 3.31886,1.03906 6.24023,1.03906 2.12914,0 4.70226,-0.34583 7.72266,-1.03906 3.06991,-0.6932 5.32385,-1.41159 6.75976,-2.15429 L 500,223.0918 V 0 Z m 108.36328,107.1543 c 3.36701,0 5.94208,0.94069 7.72461,2.82226 1.83204,1.88155 2.74805,4.28174 2.74805,7.20313 0,2.17864 -0.57016,4.16083 -1.70899,5.94336 -1.13884,1.78253 -2.62499,3.16791 -4.45703,4.1582 -1.83206,0.99029 -3.78756,1.48633 -5.86719,1.48633 -1.88157,0 -3.61479,-0.39724 -5.19921,-1.18946 -1.5845,-0.84169 -2.871047,-2.02949 -3.861332,-3.56445 -0.940773,-1.53496 -1.41211,-3.29285 -1.41211,-5.27344 0,-2.07962 0.570166,-4.01043 1.708984,-5.79296 1.188347,-1.78254 2.723898,-3.19457 4.605468,-4.23438 1.88158,-1.03981 3.78769,-1.55859 5.71875,-1.55859 z m 207.8125,17.67578 h 9.80469 v 19.31054 h 23.91601 v 12.33008 h -23.91601 v 42.85547 c 0,5.64469 0.22234,9.65456 0.66797,12.03125 0.4456,2.3272 1.26279,3.83805 2.45117,4.53125 1.23787,0.69323 3.31693,1.03906 6.23828,1.03906 2.12916,0 4.70421,-0.34583 7.72461,-1.03906 3.06991,-0.6932 5.32385,-1.41161 6.75977,-2.15429 l 2.82226,9.35742 c -2.42623,1.78255 -5.91732,3.39218 -10.47265,4.82812 -4.50586,1.38641 -8.8141,2.08008 -12.92383,2.08008 -6.18933,0 -10.99169,-1.53553 -14.40821,-4.60547 -3.41651,-3.11939 -5.125,-8.73894 -5.125,-16.85937 V 156.4707 h -10.99218 v -8.83789 l 2.67382,-0.74414 c 2.2777,-0.6437 3.96148,-1.16248 5.05079,-1.55859 1.08933,-0.44563 2.03002,-1.04051 2.82226,-1.7832 0.84175,-0.79224 1.51072,-1.85646 2.00586,-3.19336 0.74273,-1.88158 1.83166,-5.27384 3.26758,-10.17579 z m -285.501952,1.48633 c -2.277677,0 -5.000977,0.0742 -8.169922,0.22265 -3.11943,0.14844 -5.124359,0.39548 -6.015625,0.74219 v 37.13672 c 2.129134,0.34659 5.274352,0.51953 9.433594,0.51953 l 6.089844,-0.0742 c 1.188354,-0.0497 2.872133,-0.0742 5.050781,-0.0742 3.267974,0 6.213608,-0.79247 8.837891,-2.37695 2.673796,-1.58448 4.777543,-3.95997 6.3125,-7.12891 1.534959,-3.16895 2.302734,-7.00783 2.302734,-11.51367 0,-5.84274 -2.029633,-10.2004 -6.089844,-13.07226 -4.06021,-2.92136 -9.978135,-4.38086 -17.751953,-4.38086 z m 367.275392,16.5625 c 6.53594,0 11.98253,0.74307 16.33984,2.22851 4.35729,1.48547 7.74955,4.20875 10.17578,8.16992 2.42623,3.91168 3.64063,9.4324 3.64063,16.5625 V 230 h -6.68555 c -2.22816,0 -3.91196,-0.14822 -5.05078,-0.44531 -1.13885,-0.29707 -2.03012,-0.99075 -2.67383,-2.08008 -0.6437,-1.08934 -0.96484,-2.82253 -0.96484,-5.19922 v -0.59375 c -2.47572,2.27767 -5.89268,4.2332 -10.25,5.86719 -4.30778,1.63399 -8.81371,2.45117 -13.51758,2.45117 -5.00102,0 -9.48219,-0.9654 -13.44336,-2.89648 -3.91166,-1.93109 -6.9808,-4.67913 -9.20898,-8.24414 -2.17862,-3.61459 -3.26758,-7.84873 -3.26758,-12.70118 0,-5.34759 1.43478,-9.97699 4.30664,-13.88867 2.92135,-3.91165 6.98257,-6.9314 12.18164,-9.06055 4.60485,-1.83202 9.80247,-3.19465 15.5957,-4.08593 5.84272,-0.94078 11.39012,-1.41016 16.63867,-1.41016 v -8.54101 c 0,-3.96118 -0.64425,-6.93348 -1.93164,-8.91407 -1.23787,-1.98061 -3.1193,-3.31657 -5.64453,-4.00976 -2.52525,-0.6932 -6.01629,-1.04102 -10.47265,-1.04102 -2.37667,0 -5.1247,0.32312 -8.24414,0.9668 -3.06994,0.6437 -5.96616,1.46088 -8.68946,2.45117 -2.67381,0.94077 -4.65597,1.85677 -5.94336,2.74805 l -4.00976,-10.69532 c 1.28741,-0.79223 3.61542,-1.80705 6.98242,-3.04492 3.41649,-1.23786 7.27813,-2.32873 11.58594,-3.26953 4.35729,-0.99029 8.5401,-1.48437 12.55078,-1.48437 z m -221.92383,0.0742 c 8.56605,0 15.62232,1.98021 21.16797,5.94141 5.54567,3.96117 9.60492,9.25955 12.17969,15.89453 2.57476,6.63498 3.86132,14.11121 3.86133,22.42969 -10e-6,9.06119 -1.65712,16.81112 -4.97461,23.24805 -3.3175,6.4369 -7.89749,11.31336 -13.74024,14.63086 C 188.67681,228.36564 182.0158,230 174.53906,230 c -8.51653,0 -15.5481,-1.98023 -21.09375,-5.94141 -5.54567,-3.96121 -9.60494,-9.25957 -12.17969,-15.89453 -2.57471,-6.63498 -3.86132,-14.11126 -3.86132,-22.42968 0,-9.06123 1.65711,-16.78645 4.97461,-23.17383 3.31749,-6.43693 7.89751,-11.31337 13.74023,-14.63086 5.84275,-3.31749 12.47905,-4.97656 19.90625,-4.97657 z m 83.70508,0 c 4.55536,0 8.83701,0.49604 12.84765,1.48633 4.01071,0.9903 6.88225,1.95569 8.61524,2.89649 l -2.67383,12.32812 c -1.38641,-1.18834 -3.83602,-2.25258 -7.35156,-3.19336 -3.51554,-0.99029 -7.15482,-1.48632 -10.91797,-1.48632 -5.19902,0 -9.18615,0.84189 -11.95898,2.52539 -2.72331,1.68349 -4.08399,3.98682 -4.08399,6.9082 0,2.47573 0.61955,4.60418 1.85742,6.38672 1.28739,1.78253 3.0947,3.34278 5.42188,4.67969 2.32718,1.33683 5.37164,2.77363 9.13476,4.30859 7.22918,2.92138 13.16984,6.45992 17.82422,10.61914 4.65436,4.10973 6.98242,9.40808 6.98242,15.89453 0,5.05051 -1.21246,9.35876 -3.63867,12.92383 -2.37672,3.51553 -5.81839,6.18945 -10.32422,8.02148 C 267.0085,229.08402 261.71013,230 255.57031,230 c -5.49616,0 -10.84392,-0.61955 -16.04297,-1.85742 -5.14953,-1.23787 -8.78887,-2.62328 -10.91796,-4.1582 l 2.45117,-12.18165 c 0.94077,0.64371 2.67394,1.46088 5.19922,2.45118 2.52525,0.94077 5.47091,1.78267 8.83789,2.52539 3.367,0.74272 6.70985,1.11523 10.02734,1.11523 4.85243,0 8.56587,-0.916 11.14062,-2.74805 2.62426,-1.83202 3.93555,-4.38239 3.93555,-7.65039 0,-3.11941 -1.48422,-5.79332 -4.45508,-8.02148 -2.92139,-2.22819 -7.25435,-4.55621 -12.99804,-6.98242 -7.47671,-3.16896 -13.29388,-6.88236 -17.45313,-11.14063 -4.10973,-4.25826 -6.16601,-9.6308 -6.16601,-16.11718 0,-4.80294 1.33797,-8.8622 4.01171,-12.17969 2.72333,-3.36701 6.38732,-5.89268 10.99219,-7.57617 4.60488,-1.68352 9.80445,-2.52539 15.59766,-2.5254 z M 99.451172,144.28906 H 115.79102 V 228.8125 H 99.451172 Z m 75.607418,10.39844 c -6.88254,0 -12.12955,2.62446 -15.74414,7.87305 -3.56505,5.19903 -5.34765,12.65057 -5.34765,22.35547 0,6.28837 0.79247,11.98396 2.37695,17.08398 1.58448,5.0505 3.98468,9.06037 7.20313,12.03125 3.21839,2.92138 7.20557,4.38281 11.95898,4.38281 6.88257,0 12.12958,-2.69859 15.74414,-8.0957 3.61459,-5.39712 5.42188,-12.99882 5.42188,-22.80274 0,-6.33783 -0.79058,-11.9574 -2.375,-16.85937 -1.53497,-4.95146 -3.91242,-8.83781 -7.13086,-11.66016 -3.21845,-2.87186 -7.25497,-4.30859 -12.10743,-4.30859 z M 26.738281,176.52344 c -4.753416,0 -8.17038,0.14822 -10.25,0.44531 v 39.14258 c 1.13884,0.6932 3.368059,1.16258 6.685547,1.41015 3.317488,0.19808 7.080307,0.29688 11.289063,0.29688 v 0.002 c 8.86314,0 15.571594,-1.58497 20.126953,-4.7539 4.555356,-3.21848 6.833984,-8.61566 6.833984,-16.19141 0,-7.03109 -2.130404,-12.15655 -6.388672,-15.375 -4.208756,-3.26797 -10.818394,-4.90234 -19.830078,-4.90234 z m 385.027339,11.58789 c -3.61454,0 -7.70049,0.34583 -12.25585,1.03906 -4.50586,0.6932 -8.14516,1.70802 -10.91797,3.04492 -3.0204,1.43592 -5.34845,3.11972 -6.98242,5.05078 -1.634,1.9311 -2.44922,4.43204 -2.44922,7.50196 0,8.71458 4.87645,13.07226 14.63086,13.07226 2.32718,0 4.77872,-0.34781 7.35351,-1.04101 2.57477,-0.6932 4.82675,-1.51038 6.75781,-2.45118 1.9806,-0.99027 3.26914,-1.83218 3.86328,-2.52539 z M 386.00391,270 h 14.89843 l -42.88867,147.62891 h -14.89844 z m -250.48829,23.09961 c 11.63783,0 20.01424,2.7334 25.13086,8.20117 5.16679,5.41763 7.75,12.41625 7.75,20.99414 0,6.3707 -1.70416,12.84273 -5.11523,19.41406 -3.36093,6.5212 -8.12683,12.84106 -14.29687,18.96094 -6.17006,6.06975 -13.39304,11.6627 -21.66993,16.7793 l 46.27539,-0.45117 v 13.31836 H 102.48242 L 100,381.8125 c 9.17984,-5.31727 17.63232,-11.18458 25.35742,-17.60547 7.77527,-6.47103 14.07107,-13.24342 18.88672,-20.31641 4.86581,-7.12313 7.29883,-14.02166 7.29883,-20.69335 0,-5.21694 -1.52989,-9.33006 -4.58985,-12.33985 -3.05992,-3.05995 -7.47539,-4.58984 -13.24414,-4.58984 -4.7655,0 -9.45533,1.02924 -14.07031,3.08594 -4.56484,2.05666 -8.30148,4.5898 -11.21094,7.5996 l -6.99804,-9.33007 c 3.56157,-3.91275 8.22735,-7.29892 13.99609,-10.15821 5.81891,-2.90945 12.51523,-4.36523 20.08984,-4.36523 z m 157.41211,0.22656 c 5.96942,0 11.43623,1.02732 16.40235,3.08399 4.96615,2.05671 8.905,5.11652 11.81445,9.17968 2.9596,4.01308 4.43945,8.90511 4.43945,14.67383 0,6.17008 -1.90636,11.71295 -5.71875,16.62891 -3.81238,4.91598 -8.80455,8.82882 -14.97461,11.73828 5.51794,0.65212 10.30791,2.3322 14.3711,5.04102 4.06322,2.65863 7.14902,5.96878 9.25586,9.93164 2.10686,3.91274 3.16015,8.07787 3.16015,12.49218 0,7.12315 -2.05656,13.69332 -6.16992,19.71289 -4.11336,6.06975 -10.00668,10.91172 -17.68164,14.52344 -7.67496,3.66191 -16.63003,5.49219 -26.86328,5.49219 -4.81565,0 -10.10818,-0.5026 -15.87695,-1.50586 l -0.0742,-11.43555 c 4.26386,0.85279 8.37698,1.27735 12.33984,1.27735 7.27365,0 13.74368,-1.20352 19.41211,-3.61133 5.71858,-2.35767 10.15807,-5.59365 13.31836,-9.70703 3.16027,-4.0632 4.74024,-8.57682 4.74024,-13.54297 0,-6.3707 -1.90439,-11.41293 -5.7168,-15.125 -3.76222,-3.71205 -9.53137,-5.56641 -17.30664,-5.56641 -0.75246,0 -2.03203,0.0501 -3.83789,0.15039 l -6.84766,1.6543 -3.46094,-11.36133 c 5.11663,-1.00326 9.68226,-2.38295 13.69532,-4.13867 5.66841,-2.20719 10.05785,-5.1428 13.16796,-8.80469 3.16027,-3.66191 4.74024,-7.69894 4.74024,-12.11328 0,-5.31727 -1.63198,-9.23011 -4.89258,-11.73828 -3.2606,-2.55831 -7.54797,-3.83789 -12.86523,-3.83789 -4.81565,0 -9.10495,0.7529 -12.86719,2.25781 -3.76224,1.50488 -7.34869,3.46133 -10.75977,5.86914 l -6.4707,-9.40625 c 3.61174,-2.95962 8.27556,-5.66699 13.99414,-8.125 5.76874,-2.45798 11.61396,-3.6875 17.5332,-3.6875 z m -70.42968,0.82813 7.52539,1.88086 v 94.28125 h -17.23242 v -75.16993 c -6.62154,1.80586 -12.21449,3.13552 -16.7793,3.98829 l -1.88086,-9.85743 c 3.05993,-0.90293 6.52222,-2.28264 10.38476,-4.13867 3.91272,-1.90619 7.52322,-3.88666 10.83399,-5.94336 3.31076,-2.05669 5.6937,-3.73677 7.14844,-5.04101 z"
       transform="matrix(0.26458333,0,0,0.26458333,73.554161,41.804165)" />
  </g>
</svg>
