<?xml version="1.0" encoding="UTF-8" standalone="no"?>
<!-- Created with Inkscape (http://www.inkscape.org/) -->

<svg
   width="600"
   height="600"
   viewBox="0 0 600 600"
   version="1.1"
   id="svg1"
   inkscape:version="1.4.3 (0d15f75, 2025-12-25)"
   sodipodi:docname="logo.svg"
   xmlns:inkscape="http://www.inkscape.org/namespaces/inkscape"
   xmlns:sodipodi="http://sodipodi.sourceforge.net/DTD/sodipodi-0.dtd"
   xmlns:xlink="http://www.w3.org/1999/xlink"
   xmlns="http://www.w3.org/2000/svg"
   xmlns:svg="http://www.w3.org/2000/svg">
  <sodipodi:namedview
     id="namedview1"
     pagecolor="#808080"
     bordercolor="#ffffff"
     borderopacity="1"
     inkscape:showpageshadow="0"
     inkscape:pageopacity="0"
     inkscape:pagecheckerboard="false"
     inkscape:deskcolor="#808080"
     inkscape:document-units="px"
     showborder="true"
     inkscape:zoom="0.80965542"
     inkscape:cx="163.03232"
     inkscape:cy="221.69925"
     inkscape:window-width="1728"
     inkscape:window-height="1056"
     inkscape:window-x="0"
     inkscape:window-y="33"
     inkscape:window-maximized="1"
     inkscape:current-layer="svg1" />
  <defs
     id="defs1">
    <linearGradient
       id="linearGradient4"
       inkscape:collect="always">
      <stop
         style="stop-color:#ff004c;stop-opacity:1;"
         offset="0"
         id="stop4" />
      <stop
         style="stop-color:#ff9f20;stop-opacity:1;"
         offset="1"
         id="stop5" />
    </linearGradient>
    <linearGradient
       inkscape:collect="always"
       xlink:href="#linearGradient4"
       id="linearGradient5"
       x1="77.323517"
       y1="51.63438"
       x2="450.67447"
       y2="424.98535"
       gradientUnits="userSpaceOnUse"
       gradientTransform="matrix(1.136368,0,0,1.136368,-7.0751853e-7,29.192309)" />
  </defs>
  <path
     style="fill:url(#linearGradient5);stroke:none;stroke-width:16.3637"
     d="m 320.44138,29.266214 c -13.83153,0.331865 -27.89408,1.775529 -38.29105,4.240073 -20.60565,4.88445 -55.42908,18.425843 -64.98332,25.269983 -4.95934,3.551036 -13.92255,8.963488 -19.91939,12.025091 -16.18166,8.260259 -26.4517,15.280808 -30.91626,21.136444 -2.18853,2.870625 -7.54446,7.287744 -11.90266,9.814485 -12.94891,7.50808 -56.306121,23.23613 -87.20908,31.63807 -15.869719,4.3142 -31.204096,9.04777 -34.069789,10.51763 -8.398214,4.29813 -6.518888,7.66445 5.081724,9.11403 5.667181,0.70782 11.358794,2.5598 12.651071,4.11489 1.674325,2.01738 5.924114,2.78214 14.834943,2.66336 6.868776,-0.0888 14.623692,-0.0342 17.231884,0.11987 2.608078,0.1547 7.944235,-0.35608 11.857318,-1.1346 5.333889,-1.06227 7.113779,-0.79425 7.113779,1.07867 0,1.37364 1.78148,4.39541 3.95774,6.71167 3.19115,3.39643 3.55831,4.95562 1.89637,8.05934 -1.13227,2.11644 -2.05876,5.53133 -2.05876,7.58791 0,2.05672 -2.98842,7.31575 -6.639908,11.68683 -3.651491,4.37115 -6.642298,9.25788 -6.642298,10.85853 0,1.60067 -2.987512,6.21923 -6.639798,10.26194 -3.6524,4.04206 -6.639685,8.28223 -6.639685,9.42298 0,1.14117 -3.414899,5.95427 -7.587983,10.69606 -4.233198,4.80867 -7.58787,10.5833 -7.58787,13.05846 0,2.44021 -3.457968,8.93667 -7.683893,14.43543 -6.351842,8.26979 -7.522756,11.08124 -6.746276,16.25451 0.747276,4.97713 -0.584888,8.65943 -6.525138,18.02297 -7.706621,12.14947 -9.115717,17.93456 -5.289452,21.75967 1.687052,1.68601 0.07386,6.76025 -6.76764,21.3069 -9.58765,20.38247 -10.23538,25.2586 -3.48899,26.2208 2.337281,0.33214 4.24797,1.53656 4.24797,2.67402 0,1.13805 -5.009223,9.40342 -11.132769,18.36655 -20.35575976,29.7937 -25.4035063,44.00935 -16.1026754,45.33308 3.122171,0.44621 8.5079874,-4.4528 23.2590664,-21.14975 16.847905,-19.06857 23.963955,-25.52754 25.946576,-23.54412 0.786707,0.78774 -20.485533,33.60975 -28.849656,44.50744 -10.010947,13.04501 -20.3640546,35.51018 -18.9550719,41.1303 1.2331865,4.90895 5.2801339,7.34207 9.5135589,5.71824 1.457165,-0.55916 8.369577,-7.84977 15.35949,-16.20123 6.990141,-8.35107 13.119596,-14.77432 13.617893,-14.27562 0.497957,0.49817 -3.427399,9.13789 -8.719919,19.19752 -9.925152,18.85433 -11.688227,27.15668 -6.812981,32.03225 3.842742,3.84257 8.86742,2.13007 16.318472,-5.55577 3.449899,-3.55964 6.86548,-6.47463 7.587983,-6.47463 0.72273,0 1.882053,3.03349 2.578078,6.74097 2.602396,13.87485 11.584476,10.5811 34.285472,-12.56575 10.403104,-10.61183 18.107454,-16.98159 20.619854,-16.98159 13.04187,-0.13473 36.57014,-19.71226 58.08249,-48.33469 11.91846,-15.8551 13.55664,-17.3263 18.52644,-16.59543 4.66013,0.68385 6.90195,-0.78627 15.42346,-10.10746 11.02232,-12.06202 27.3459,-43.5953 34.29354,-66.25647 4.46388,-14.55707 14.23858,-56.01781 17.44768,-73.99086 1.11842,-6.26062 6.73173,-22.05218 12.47255,-35.09513 5.74059,-13.04294 12.47016,-30.49721 14.95733,-38.78655 6.119,-20.39979 9.60765,-22.4438 19.81815,-11.61759 3.37796,3.58034 7.18002,9.5236 8.44548,13.20762 1.27455,3.70656 7.07412,11.21172 12.98392,16.80048 5.87593,5.55633 10.68276,11.38365 10.68276,12.94927 0,3.22337 15.80086,19.15065 22.29236,22.4708 2.76774,1.41554 4.26934,3.91129 4.26934,7.10317 0,3.41378 3.04842,7.95576 9.95833,14.82695 5.47729,5.44779 14.22824,14.37364 19.44519,19.83672 5.21831,5.46266 10.98231,10.7435 12.81073,11.73477 1.8258,0.99183 5.36411,5.82771 7.85696,10.74667 5.32604,10.50249 9.08833,14.17633 18.5103,18.06559 5.40081,2.22909 7.22855,4.25373 8.29912,9.19925 2.27035,10.49016 11.51595,26.93442 17.69268,31.47296 3.9707,2.91517 6.19628,6.50818 7.05798,11.38322 2.31524,13.10713 11.64914,30.13911 18.84598,34.384 5.40855,3.19152 6.61298,5.05839 6.67707,10.13943 0.0273,3.42774 2.80229,14.34245 6.16571,24.25524 5.34048,15.72916 6.67571,18.00723 10.48822,18.07091 5.48718,0.0623 7.88071,3.78066 7.94481,12.28076 0.0761,11.86561 12.31436,58.81504 15.33028,58.81504 0.96898,0 1.85114,-6.62121 1.96296,-14.7071 0.57932,-42.46874 5.41684,-64.69567 8.27503,-38.0328 2.62092,24.44789 8.5739,56.26553 13.43665,71.80691 8.89458,28.4312 10.42481,23.92931 5.62775,-16.56345 -2.99286,-25.27361 -4.22434,-58.70332 -2.23729,-60.69271 0.69444,-0.68906 1.25705,1.07856 1.25705,3.93113 0,12.77342 13.66517,59.62562 25.11294,86.10917 4.19127,9.69256 7.97776,17.26372 8.42151,16.81913 0.44091,-0.44148 -2.62865,-13.92123 -6.82355,-29.95483 -6.9198,-26.4459 -13.62266,-60.81308 -13.27948,-68.04625 0.0761,-1.56411 2.94103,5.26598 6.36536,15.1785 6.79685,19.65738 23.31543,56.17037 24.76135,54.72411 0.49614,-0.49551 -0.85671,-5.54079 -3.00433,-11.2101 -12.76209,-33.69694 -21.02644,-63.64927 -20.12167,-72.9202 0.20455,-2.08755 -1.59841,-12.33268 -4.00297,-22.76642 -10.28117,-44.60006 -11.69754,-52.90598 -14.55801,-85.36875 -9.12469,-103.51332 -19.81826,-168.50352 -30.84705,-187.47675 -3.59808,-6.1894 -41.04368,-39.3492 -58.77772,-52.05009 -5.4557,-3.90744 -9.96106,-8.48226 -9.96106,-10.16606 -0.0591,-4.477124 20.28848,-13.12885 29.55,-12.565746 7.23377,0.441138 7.41355,0.294183 7.97696,-6.413377 0.50602,-6.054977 -0.4158,-7.738995 -7.81185,-14.248986 -5.17797,-4.557438 -8.89367,-9.693003 -9.71322,-13.423347 -1.78853,-8.149462 -13.45323,-18.297581 -25.70407,-22.366926 -10.79414,-3.58498 -32.00115,-3.170603 -63.8807,1.24913 -13.26051,1.83778 -17.79621,1.657108 -31.69683,-1.259778 -9.47253,-1.98786 -23.0719,-2.76884 -36.90355,-2.436975 z"
     id="rect3" />
</svg>
