<?xml version="1.0" encoding="UTF-8" standalone="no"?>
<!-- Created with Inkscape (http://www.inkscape.org/) -->

<svg
   width="900"
   height="283.0618"
   viewBox="0 0 900 283.0618"
   version="1.1"
   id="svg1"
   sodipodi:docname="pdsr_.svg"
   inkscape:version="1.4 (e7c3feb1, 2024-10-09)"
   xmlns:inkscape="http://www.inkscape.org/namespaces/inkscape"
   xmlns:sodipodi="http://sodipodi.sourceforge.net/DTD/sodipodi-0.dtd"
   xmlns:xlink="http://www.w3.org/1999/xlink"
   xmlns="http://www.w3.org/2000/svg"
   xmlns:svg="http://www.w3.org/2000/svg">
  <sodipodi:namedview
     id="namedview1"
     pagecolor="#ffffff"
     bordercolor="#ffffff"
     borderopacity="1"
     inkscape:showpageshadow="0"
     inkscape:pageopacity="0"
     inkscape:pagecheckerboard="1"
     inkscape:deskcolor="#d1d1d1"
     inkscape:zoom="0.46874355"
     inkscape:cx="567.47448"
     inkscape:cy="279.47051"
     inkscape:window-width="1728"
     inkscape:window-height="1051"
     inkscape:window-x="0"
     inkscape:window-y="38"
     inkscape:window-maximized="1"
     inkscape:current-layer="g8" />
  <defs
     id="defs1">
    <linearGradient
       id="linearGradient17"
       inkscape:collect="always">
      <stop
         style="stop-color:#000000;stop-opacity:1;"
         offset="0"
         id="stop17" />
      <stop
         style="stop-color:#999999;stop-opacity:1;"
         offset="1"
         id="stop18" />
    </linearGradient>
    <linearGradient
       id="linearGradient6">
      <stop
         style="stop-color:#000000;stop-opacity:1;"
         offset="0"
         id="stop6" />
      <stop
         style="stop-color:#808080;stop-opacity:1;"
         offset="1"
         id="stop7" />
    </linearGradient>
    <linearGradient
       xlink:href="#linearGradient6"
       id="linearGradient8"
       gradientUnits="userSpaceOnUse"
       x1="8.4343157"
       y1="413.14838"
       x2="929.71631"
       y2="50.089413"
       gradientTransform="matrix(0.97689959,0,0,0.97689959,92.388412,1138.9993)" />
    <rect
       x="0"
       y="0"
       width="1200"
       height="1200"
       id="rect4" />
    <rect
       x="0"
       y="0"
       width="1200"
       height="1200"
       id="rect6" />
    <linearGradient
       inkscape:collect="always"
       xlink:href="#linearGradient17"
       id="linearGradient18"
       x1="8.4343158"
       y1="231.61889"
       x2="932.75957"
       y2="231.61889"
       gradientUnits="userSpaceOnUse" />
    <filter
       style="color-interpolation-filters:sRGB;"
       inkscape:label="Invert"
       id="filter1"
       x="0"
       y="0"
       width="1"
       height="1">
      <feColorMatrix
         values="-1 0 0 0 1 0 -1 0 0 1 0 0 -1 0 1 -0.21 -0.72 -0.07 2 0 "
         result="color2"
         id="feColorMatrix1" />
    </filter>
  </defs>
  <g
     id="g8"
     style="display:inline;stroke-width:1.28571"
     transform="matrix(0.77777778,0,0,0.77777778,-116.66667,-328.73862)"
     inkscape:label="pdsr_">
    <path
       style="font-size:383.378px;line-height:1.25;font-family:'Zx Proto';-inkscape-font-specification:'Zx Proto';font-variant-ligatures:none;white-space:pre;stroke-width:1.28261;fill:#00ffb3;fill-opacity:1;filter:url(#filter1)"
       d="M 1162.7867,337.6229 H 976.46501 v 32.97051 h 186.32169 z"
       transform="matrix(1.0024173,0,0,1.0024173,141.5453,372.45346)"
       id="path17"
       inkscape:label="_" />
    <path
       id="text5"
       style="font-size:383.378px;line-height:1.25;font-family:'Zx Proto';-inkscape-font-specification:'Zx Proto';font-variant-ligatures:none;white-space:pre;stroke-width:1.28261;fill:url(#linearGradient18)"
       transform="matrix(1.0024173,0,0,1.0024173,141.5453,372.45346)"
       d="M 44.088469,413.14837 H 80.126 v -90.09383 c 9.967828,8.43432 23.38606,14.56836 41.02145,14.56836 52.90616,0 90.4772,-47.53887 95.07774,-111.56299 4.60053,-65.55764 -30.28686,-105.42895 -79.35925,-105.42895 -23.00268,0 -43.32171,11.11796 -56.73994,24.53619 L 76.29222,123.69799 H 8.4343158 v 22.23592 l 35.6541532,6.13405 z M 119.61393,304.26902 c -18.01876,0 -32.970504,-11.50134 -39.48793,-27.60322 v -86.64342 c 10.351206,-21.08579 29.90348,-36.03753 52.90616,-36.03753 34.12064,0 49.45576,29.5201 46.00536,72.07506 -3.4504,43.32171 -26.0697,78.20911 -59.42359,78.20911 z m 239.99494,39.87131 c 19.55228,0 36.80429,-5.75067 51.37265,-13.41823 9.96783,7.28418 23.76944,10.73458 44.47185,9.96783 V 309.63631 C 438.96812,308.86955 430.91718,301.202 430.91718,287.40039 V 50.089411 h -36.42091 v 90.093829 c -11.88472,-10.35121 -27.21984,-16.48525 -44.85523,-16.48525 -47.53887,0 -88.94369,39.10455 -88.94369,109.26272 0,66.3244 45.62198,111.17962 98.91152,111.17962 z m 0,-33.35389 c -35.27077,0 -62.49061,-30.67023 -62.49061,-77.82573 0,-47.15549 18.78552,-75.52546 60.19034,-75.52546 14.18499,0 28.75335,6.51742 37.18767,16.10187 V 304.6524 c -10.35121,4.21715 -21.46917,6.13404 -34.8874,6.13404 z m 147.60085,0 c 21.85254,18.40215 55.97318,32.58713 90.4772,32.58713 53.28954,0 83.19303,-23.76943 83.19303,-60.19034 0,-65.94101 -129.19839,-69.77479 -127.66487,-103.12868 0.76675,-14.95174 22.23592,-25.30295 44.85522,-25.30295 20.70241,0 36.42091,8.05094 53.67292,21.08579 L 674.7459,151.3012 c -23.00268,-19.55228 -44.85523,-30.28686 -76.6756,-30.28686 -36.42091,0 -82.42627,21.08579 -82.42627,59.80697 0,64.4075 127.66487,57.89007 127.66487,102.7453 0,15.33512 -15.71849,26.0697 -45.62198,26.0697 -22.6193,0 -46.77211,-10.73458 -67.09115,-24.53619 z M 738.77031,337.6229 H 898.25555 V 306.18591 H 819.27969 V 187.33873 c 18.78552,-18.40214 34.88739,-31.43699 52.1394,-31.43699 13.03486,0 26.06971,4.98391 34.50402,15.33512 l 26.83646,-22.61931 c -9.96782,-17.63538 -30.28686,-27.60321 -52.1394,-27.98659 -23.38606,-0.38338 -44.08847,14.18499 -62.49062,31.05362 l -3.83378,-27.98659 h -67.47452 v 22.23592 l 34.88739,6.13405 v 154.11795 h -42.93833 z"
       inkscape:label="pdsr" />
  </g>
</svg>
