<?xml version="1.0" encoding="UTF-8" standalone="no"?>
<svg
   id="svg947"
   version="1.1"
   viewBox="0 0 191.84359 191.97738"
   height="725.5838"
   width="725.07812"
   xmlns="http://www.w3.org/2000/svg"
   xmlns:svg="http://www.w3.org/2000/svg"
   xmlns:rdf="http://www.w3.org/1999/02/22-rdf-syntax-ns#"
   xmlns:cc="http://creativecommons.org/ns#"
   xmlns:dc="http://purl.org/dc/elements/1.1/">
  <defs
     id="defs941" />
  <metadata
     id="metadata944">
    <rdf:RDF>
      <cc:Work
         rdf:about="">
        <dc:format>image/svg+xml</dc:format>
        <dc:type
           rdf:resource="http://purl.org/dc/dcmitype/StillImage" />
      </cc:Work>
    </rdf:RDF>
  </metadata>
  <g
     id="g7"
     style="display:inline"
     transform="translate(-49.642802,-17.892798)">
    <path
       d="M 191.57901,11.973946 101.77674,101.77674 11.973946,191.57901 70.345578,160.14837 128.71721,128.71721 160.14837,70.345578 Z"
       style="display:inline;fill:#000000;fill-opacity:1"
       id="path6"
       transform="translate(49.775093,18.025089)" />
    <path
       style="fill:#000000;fill-opacity:1;stroke:#000000;stroke-width:0.264583px;stroke-linecap:butt;stroke-linejoin:miter;stroke-opacity:1"
       d="M 88.690029,56.940025 205.43329,18.025089 h 35.92081 l -10e-6,11.973946 L 124.61083,92.86083 61.749039,209.6041 49.775093,209.73642 v -36.05314 z"
       id="path8" />
    <path
       id="path7"
       style="display:inline;fill:#ffffff;fill-opacity:1;stroke-width:1.96565;stroke-linecap:round"
       d="M 45.255859,0 C 20.184704,0 0,20.184701 0,45.255859 V 588.31445 L 147.08008,147.08008 588.31445,0 Z M 724.07812,45.255859 605.28516,265.87305 486.49023,486.49023 265.87305,605.28516 45.255859,724.07812 H 678.82422 c 25.07115,0 45.2539,-20.18275 45.2539,-45.2539 z m 0,0 L 282.84375,282.84375 45.255859,724.07812 384.66797,384.66797 Z"
       transform="matrix(0.26458333,0,0,0.26458333,49.775092,18.025089)" />
  </g>
</svg>
