<?xml version="1.0" encoding="UTF-8" standalone="no"?>
<svg
   version="1.0"
   width="725.000000pt"
   height="725.000000pt"
   viewBox="0 0 725.000000 725.000000"
   preserveAspectRatio="xMidYMid meet"
   id="svg3"
   sodipodi:docname="favicon.svg"
   inkscape:version="1.4 (e7c3feb1, 2024-10-09)"
   xmlns:inkscape="http://www.inkscape.org/namespaces/inkscape"
   xmlns:sodipodi="http://sodipodi.sourceforge.net/DTD/sodipodi-0.dtd"
   xmlns="http://www.w3.org/2000/svg"
   xmlns:svg="http://www.w3.org/2000/svg">
  <defs
     id="defs3" />
  <sodipodi:namedview
     id="namedview3"
     pagecolor="#505050"
     bordercolor="#ffffff"
     borderopacity="1"
     inkscape:showpageshadow="0"
     inkscape:pageopacity="0"
     inkscape:pagecheckerboard="1"
     inkscape:deskcolor="#d1d1d1"
     inkscape:document-units="pt"
     inkscape:zoom="0.54675777"
     inkscape:cx="422.49057"
     inkscape:cy="620.01862"
     inkscape:window-width="1728"
     inkscape:window-height="1051"
     inkscape:window-x="0"
     inkscape:window-y="38"
     inkscape:window-maximized="1"
     inkscape:current-layer="svg3" />
  <metadata
     id="metadata1">
Created by potrace 1.16, written by Peter Selinger 2001-2019
</metadata>
  <g
     transform="translate(0.000000,725.000000) scale(0.100000,-0.100000)"
     fill="#000000"
     stroke="none"
     id="g3"
     style="fill:#00b2b2;fill-opacity:1">
    <path
       d="m 341,7224 c -30,-8 -76,-26 -102,-41 C 180,7152 91,7060 61,7002 7,6896 10,7070 11,4120 l 1,-2725 731,2191 730,2190 971,324 c 534,178 1518,507 2186,731 l 1215,408 H 3120 c -2349,0 -2732,-2 -2779,-15 z"
       id="path1"
       style="display:inline;fill:#00b2b2;fill-opacity:1" />
    <path
       d="M 5021,5590 2836,4412 1713,2323 C 1095,1175 564,188 533,130 L 478,25 1212,760 c 2517,2519 6001,6010 5997,6009 -2,0 -987,-531 -2188,-1179 z"
       id="path2"
       style="display:inline;fill:#00b2b2;fill-opacity:1" />
    <path
       d="M 6054,4570 4874,2375 2675,1190 476,5 3615,2 c 2032,-2 3169,1 3223,7 198,24 351,161 391,351 9,42 11,831 9,3230 l -3,3174 z"
       id="path3"
       style="display:inline;fill:#00b2b2;fill-opacity:1" />
  </g>
</svg>
