<?xml version="1.0" encoding="UTF-8" standalone="no"?>
<!-- Created with Inkscape (http://www.inkscape.org/) -->

<svg
   width="1318.3353"
   height="240.00078"
   viewBox="0 0 1318.3353 240.00077"
   version="1.1"
   id="svg1"
   sodipodi:docname="_lcm_logo.svg"
   inkscape:version="1.4 (e7c3feb1, 2024-10-09)"
   xmlns:inkscape="http://www.inkscape.org/namespaces/inkscape"
   xmlns:sodipodi="http://sodipodi.sourceforge.net/DTD/sodipodi-0.dtd"
   xmlns="http://www.w3.org/2000/svg"
   xmlns:svg="http://www.w3.org/2000/svg">
  <sodipodi:namedview
     id="namedview1"
     pagecolor="#505050"
     bordercolor="#ffffff"
     borderopacity="1"
     inkscape:showpageshadow="0"
     inkscape:pageopacity="0"
     inkscape:pagecheckerboard="1"
     inkscape:deskcolor="#d1d1d1"
     inkscape:zoom="0.43263736"
     inkscape:cx="688.79857"
     inkscape:cy="247.32029"
     inkscape:window-width="1728"
     inkscape:window-height="1051"
     inkscape:window-x="0"
     inkscape:window-y="38"
     inkscape:window-maximized="1"
     inkscape:current-layer="svg1" />
  <defs
     id="defs1" />
  <g
     id="text24"
     style="font-size:123.648px;line-height:0;font-family:'DM Serif Display';-inkscape-font-specification:'DM Serif Display, Normal';font-variant-ligatures:none;letter-spacing:0px"
     aria-label="Laboratory of&#10;Computational Medicine"
     transform="translate(-260.00078)">
    <path
       style="line-height:0.75;font-family:'DM Serif Text';-inkscape-font-specification:'DM Serif Text'"
       d="m 260.24808,87.790085 v -2.596608 l 2.47296,-0.741888 q 2.59661,-0.865536 3.33849,-2.225664 0.74189,-1.483776 0.74189,-4.080384 v -62.56589 q 0,-2.47296 -0.74189,-3.833088 -0.74188,-1.483776 -3.21484,-2.3493118 l -2.59661,-0.741888 V 6.0587551 h 30.6647 v 2.5966081 l -2.34931,0.741888 q -2.34931,0.8655358 -3.21485,2.3493118 -0.74188,1.483776 -0.74188,4.080384 v 68.253698 h 18.17625 q 4.20403,0 6.30605,-2.102016 2.10202,-2.102016 3.95674,-6.058752 l 4.57497,-10.262785 h 3.46215 l -1.23648,22.132993 z m 84.4517,1.731072 q -7.04794,0 -11.99386,-3.956736 -4.82227,-4.080384 -4.82227,-11.622912 0,-5.935105 5.68781,-10.881025 5.81145,-5.069568 18.17625,-7.41888 2.10202,-0.494592 4.82228,-0.865536 2.8439,-0.494592 5.56416,-0.989184 v -8.779008 q 0,-8.408064 -2.10202,-11.622912 -2.10202,-3.214848 -6.67699,-3.214848 h -0.37095 q -2.8439,0 -4.57497,1.85472 -1.60743,1.731072 -2.10202,5.811456 l -0.37094,1.607424 q -0.37095,4.94592 -2.59661,7.295232 -2.22566,2.225664 -5.56416,2.225664 -3.0912,0 -5.19322,-1.85472 -1.97836,-1.978368 -1.97836,-5.069568 0,-5.069568 3.46214,-8.531712 3.46214,-3.462144 9.14995,-5.193216 5.81146,-1.731072 12.48845,-1.731072 11.00467,0 16.81613,5.316864 5.81145,5.316864 5.81145,17.31072 v 27.573505 q 0,5.316864 5.06957,5.316864 h 2.84391 l 1.23648,1.360128 q -2.22567,2.843904 -4.94592,4.32768 -2.72026,1.607424 -7.41888,1.607424 -5.31687,0 -8.53172,-2.47296 -3.0912,-2.596608 -4.08038,-6.80064 -3.95674,4.204032 -7.78982,6.80064 -3.83309,2.596608 -10.01549,2.596608 z m 7.17158,-7.913472 q 2.47296,0 4.69863,-1.112832 2.22566,-1.112832 5.56416,-3.70944 V 57.001732 q -3.21485,0.494592 -6.55335,1.23648 -5.31686,1.23648 -8.65536,4.574976 -3.21485,3.338496 -3.21485,9.026305 0,4.94592 2.22567,7.41888 2.34931,2.349312 5.9351,2.349312 z m 58.9801,7.789824 -20.27828,-1.607424 v -2.349312 l 1.23648,-0.247296 q 4.82227,-1.112832 4.82227,-6.1824 V 14.714115 q 0,-2.47296 -0.98918,-3.833088 -0.86554,-1.3601278 -3.3385,-1.9783678 l -1.60742,-0.370944 V 6.3060511 l 21.14381,-5.3168641 1.60742,1.112832 -0.49459,17.434368 v 12.983041 q 8.77901,-5.935104 18.91815,-5.935104 10.38643,0 17.18707,7.666176 6.80064,7.542528 6.80064,23.369472 0,10.51008 -3.46215,17.681665 -3.46214,7.047936 -9.2736,10.633728 -5.81145,3.585792 -12.85939,3.585792 -4.69862,0 -9.39725,-1.23648 -4.57497,-1.23648 -8.16076,-3.833088 z m 13.60128,-5.316864 q 4.08038,0 7.17158,-2.349312 3.0912,-2.349312 4.82227,-8.03712 1.73107,-5.687809 1.73107,-15.579649 0,-9.89184 -1.60742,-15.456 -1.60742,-5.56416 -4.69862,-7.789824 -2.96756,-2.225664 -7.17159,-2.225664 -5.56416,0 -11.37561,3.214848 v 45.131521 q 5.06956,3.0912 11.12832,3.0912 z m 68.62455,5.440512 q -9.14995,0 -16.07424,-3.833088 -6.80064,-3.833088 -10.63373,-10.881024 -3.70944,-7.047937 -3.70944,-16.816129 0,-9.768192 3.95674,-16.816128 4.08038,-7.047936 10.88102,-10.757376 6.92429,-3.833088 15.57965,-3.833088 8.65536,0 15.456,3.833088 6.92429,3.70944 10.88102,10.757376 4.08039,6.924288 4.08039,16.816128 0,9.768192 -3.83309,16.939777 -3.70944,7.047936 -10.51008,10.881024 -6.80064,3.70944 -16.07424,3.70944 z m 0,-3.462144 q 4.45133,0 7.17158,-2.349312 2.84391,-2.47296 4.08039,-8.531712 1.23648,-6.058753 1.23648,-16.939777 0,-11.004672 -1.23648,-17.063424 -1.23648,-6.1824 -4.08039,-8.531712 -2.72025,-2.47296 -7.17158,-2.47296 -4.45133,0 -7.17159,2.47296 -2.72025,2.349312 -4.08038,8.531712 -1.23648,6.058752 -1.23648,17.063424 0,10.881024 1.23648,16.939777 1.36013,6.058752 4.08038,8.531712 2.72026,2.349312 7.17159,2.349312 z m 36.10519,1.731072 v -2.349312 l 1.85472,-0.61824 q 2.47296,-0.61824 3.3385,-2.102016 0.98918,-1.483776 0.98918,-3.956736 V 42.534916 q -0.12364,-2.720256 -0.98918,-4.080384 -0.86554,-1.483776 -3.3385,-1.978368 l -1.85472,-0.494592 v -2.225664 l 20.15463,-7.171584 1.48377,1.360128 1.11284,10.881024 v 0.865536 q 1.85472,-3.462144 4.69862,-6.429696 2.84391,-2.967552 6.1824,-4.822272 3.3385,-1.85472 6.67699,-1.85472 4.69863,0 7.04794,2.47296 2.34931,2.47296 2.34931,6.306048 0,4.204032 -2.34931,6.429696 -2.34931,2.102016 -5.68781,2.102016 -4.94592,0 -8.53171,-4.451328 l -0.2473,-0.247296 q -1.23648,-1.483776 -2.8439,-1.607424 -1.48378,-0.247296 -2.96755,1.483776 -1.23648,1.23648 -2.34931,2.967552 -0.98919,1.607424 -1.85472,3.833088 v 32.395777 q 0,2.349312 0.98918,3.956736 0.98918,1.483776 3.3385,2.102016 l 3.70944,1.112832 v 2.349312 z m 69.24278,1.731072 q -7.04794,0 -11.99386,-3.956736 -4.82227,-4.080384 -4.82227,-11.622912 0,-5.935105 5.68781,-10.881025 5.81145,-5.069568 18.17625,-7.41888 2.10202,-0.494592 4.82228,-0.865536 2.8439,-0.494592 5.56416,-0.989184 v -8.779008 q 0,-8.408064 -2.10202,-11.622912 -2.10202,-3.214848 -6.67699,-3.214848 h -0.37095 q -2.8439,0 -4.57497,1.85472 -1.60743,1.731072 -2.10202,5.811456 l -0.37094,1.607424 q -0.37095,4.94592 -2.59661,7.295232 -2.22566,2.225664 -5.56416,2.225664 -3.0912,0 -5.19322,-1.85472 -1.97837,-1.978368 -1.97837,-5.069568 0,-5.069568 3.46215,-8.531712 3.46214,-3.462144 9.14995,-5.193216 5.81146,-1.731072 12.48845,-1.731072 11.00467,0 16.81613,5.316864 5.81145,5.316864 5.81145,17.31072 v 27.573505 q 0,5.316864 5.06957,5.316864 h 2.84391 l 1.23648,1.360128 q -2.22567,2.843904 -4.94592,4.32768 -2.72026,1.607424 -7.41888,1.607424 -5.31687,0 -8.53172,-2.47296 -3.0912,-2.596608 -4.08038,-6.80064 -3.95674,4.204032 -7.78982,6.80064 -3.83309,2.596608 -10.01549,2.596608 z m 7.17158,-7.913472 q 2.47296,0 4.69863,-1.112832 2.22566,-1.112832 5.56416,-3.70944 V 57.001732 q -3.21485,0.494592 -6.55335,1.23648 -5.31686,1.23648 -8.65536,4.574976 -3.21485,3.338496 -3.21485,9.026305 0,4.94592 2.22567,7.41888 2.34931,2.349312 5.9351,2.349312 z m 61.70033,7.913472 q -7.66617,0 -12.1175,-3.70944 -4.32768,-3.833088 -4.32768,-12.3648 0,-2.967553 0,-5.564161 0.12365,-2.720256 0.12365,-6.306048 V 32.272132 h -8.77901 v -2.720256 l 3.3385,-0.494592 q 3.58579,-0.61824 6.05875,-2.225664 2.59661,-1.607424 4.69862,-4.451329 l 8.03712,-11.12832 h 3.70944 l -0.37094,17.187073 h 14.09587 v 3.833088 h -14.21952 v 42.163969 q 0,4.451328 1.85472,6.676992 1.97837,2.225664 4.82227,2.225664 2.47296,0 4.45133,-1.112832 1.97837,-1.23648 3.95674,-3.214848 l 1.60742,1.85472 q -2.34931,4.080384 -6.55334,6.429696 -4.20403,2.225664 -10.38644,2.225664 z m 51.68474,0 q -9.14996,0 -16.07424,-3.833088 -6.80064,-3.833088 -10.63373,-10.881024 -3.70944,-7.047937 -3.70944,-16.816129 0,-9.768192 3.95673,-16.816128 4.08039,-7.047936 10.88103,-10.757376 6.92429,-3.833088 15.57965,-3.833088 8.65536,0 15.456,3.833088 6.92428,3.70944 10.88102,10.757376 4.08038,6.924288 4.08038,16.816128 0,9.768192 -3.83308,16.939777 -3.70944,7.047936 -10.51008,10.881024 -6.80064,3.70944 -16.07424,3.70944 z m 0,-3.462144 q 4.45132,0 7.17158,-2.349312 2.8439,-2.47296 4.08038,-8.531712 1.23648,-6.058753 1.23648,-16.939777 0,-11.004672 -1.23648,-17.063424 -1.23648,-6.1824 -4.08038,-8.531712 -2.72026,-2.47296 -7.17158,-2.47296 -4.45133,0 -7.17159,2.47296 -2.72025,2.349312 -4.08038,8.531712 -1.23648,6.058752 -1.23648,17.063424 0,10.881024 1.23648,16.939777 1.36013,6.058752 4.08038,8.531712 2.72026,2.349312 7.17159,2.349312 z m 36.10521,1.731072 v -2.349312 l 1.85472,-0.61824 q 2.47296,-0.61824 3.33849,-2.102016 0.98919,-1.483776 0.98919,-3.956736 V 42.534916 q -0.12365,-2.720256 -0.98919,-4.080384 -0.86553,-1.483776 -3.33849,-1.978368 l -1.85472,-0.494592 v -2.225664 l 20.15462,-7.171584 1.48378,1.360128 1.11283,10.881024 v 0.865536 q 1.85472,-3.462144 4.69862,-6.429696 2.84391,-2.967552 6.1824,-4.822272 3.3385,-1.85472 6.677,-1.85472 4.69862,0 7.04793,2.47296 2.34931,2.47296 2.34931,6.306048 0,4.204032 -2.34931,6.429696 -2.34931,2.102016 -5.68781,2.102016 -4.94592,0 -8.53171,-4.451328 l -0.24729,-0.247296 q -1.23648,-1.483776 -2.84391,-1.607424 -1.48377,-0.247296 -2.96755,1.483776 -1.23648,1.23648 -2.34931,2.967552 -0.98919,1.607424 -1.85472,3.833088 v 32.395777 q 0,2.349312 0.98918,3.956736 0.98919,1.483776 3.3385,2.102016 l 3.70944,1.112832 v 2.349312 z m 66.52247,29.799165 q -4.94592,0 -7.78982,-2.34931 -2.84391,-2.34931 -2.84391,-6.1824 0,-3.46214 2.34931,-5.56416 2.47296,-1.97837 5.44052,-1.97837 3.0912,0 5.06956,1.11284 1.97837,1.11283 3.46215,3.21484 l 0.74189,0.98919 q 2.8439,3.46214 5.31686,-0.12365 1.60742,-2.10202 3.0912,-5.19322 1.60742,-3.091197 3.46214,-8.160765 L 816.41637,37.218052 q -0.86553,-2.349312 -1.97836,-3.585792 -1.11284,-1.360128 -3.3385,-2.225664 l -2.10202,-0.741888 v -2.225664 h 30.54106 v 2.225664 l -2.59661,0.741888 q -2.72025,0.865536 -2.96755,2.720256 -0.12365,1.731072 0.86554,4.574976 l 12.61209,32.890368 12.11751,-33.137664 q 0.98918,-2.720256 0.74189,-4.574976 -0.2473,-1.85472 -3.0912,-2.47296 l -2.72026,-0.741888 v -2.225664 h 18.42355 v 2.225664 l -2.72025,0.865536 q -2.72026,0.741888 -3.95674,2.225664 -1.11283,1.360128 -2.10202,4.080384 l -19.78368,53.168641 q -4.94592,13.601277 -10.13913,20.030977 -5.06957,6.55334 -12.6121,6.55334 z"
       id="path24" />
    <path
       style="font-style:italic;line-height:0.75;font-family:'DM Serif Text';-inkscape-font-specification:'DM Serif Text'"
       d="m 930.54331,89.521157 q -6.30605,0 -11.49926,-2.47296 -5.19322,-2.47296 -8.28442,-7.542528 -3.0912,-5.193216 -3.0912,-12.983041 0,-7.913472 2.59661,-15.085056 2.72026,-7.171584 7.41888,-12.735744 4.82227,-5.687808 11.12832,-8.902656 6.4297,-3.214848 13.72493,-3.214848 9.76819,0 16.19789,5.687808 6.42969,5.56416 6.42969,17.31072 0,7.789824 -2.72025,14.961408 -2.59661,7.171584 -7.29523,12.859393 -4.69863,5.56416 -11.00468,8.902656 -6.30605,3.214848 -13.60128,3.214848 z m 1.48378,-3.462144 q 3.95673,0 7.17158,-3.338496 3.21485,-3.462144 5.56416,-9.026304 2.34932,-5.564161 3.5858,-12.364801 1.36012,-6.924288 1.36012,-13.724928 0,-9.768192 -2.34931,-13.60128 -2.22566,-3.833088 -5.81145,-3.833088 -3.95674,0 -7.41889,3.338496 -3.33849,3.214848 -5.81145,8.779008 -2.47296,5.56416 -3.83309,12.3648 -1.36013,6.676992 -1.36013,13.60128 0,10.015489 2.47296,13.972225 2.59661,3.833088 6.4297,3.833088 z m 26.46054,31.530237 q -4.94592,0 -8.90265,-2.22566 -4.08039,-2.22566 -4.08039,-6.4297 0,-3.0912 2.10202,-4.94592 1.97837,-1.73107 4.69862,-1.73107 2.84391,0 5.19322,1.48378 2.34931,1.48377 4.32768,4.94592 l 0.86554,1.97837 q 0.98918,1.48377 2.10201,1.48377 1.11283,0.12365 1.97837,-1.36013 0.49459,-0.98918 0.98918,-2.10201 0.4946,-1.11283 1.11284,-2.72026 1.73107,-4.08038 3.0912,-10.015487 1.48377,-5.935104 2.72025,-13.477632 1.85472,-12.117505 3.5858,-24.605953 1.85472,-12.488448 3.83308,-25.842432 h -10.26278 l 0.49459,-2.47296 5.06957,-0.61824 q 2.96755,-0.247296 4.45133,-1.978368 1.48377,-1.731072 2.34931,-4.822273 3.3385,-10.757376 10.75738,-16.4451839 7.4189,-5.6878081245361 18.1763,-5.6878081245361 6.0587,0 9.7681,2.5966080245361 3.7095,2.4729601 3.7095,6.5533442 0,3.0911998 -2.102,5.0695678 -1.9784,1.85472 -4.8223,1.85472 -5.4405,0 -9.6445,-7.4188798 l -0.4946,-1.3601281 q -1.1129,-2.225664 -2.5966,-2.225664 -1.4838,-0.123648 -2.473,1.607424 -2.3493,2.7202561 -4.0804,7.9134719 -1.73106,5.193216 -3.21484,13.848577 h 15.08504 l -0.7419,3.956736 -14.96138,-0.247296 q -1.85472,12.735744 -3.83309,25.595136 -1.85472,12.859392 -4.08038,24.729601 -1.73107,9.2736 -4.57498,16.07424 -2.8439,6.800639 -7.54253,11.499269 -3.83309,3.83308 -8.53171,5.6878 -4.57498,1.85472 -9.5209,1.85472 z"
       id="path25" />
    <path
       style="line-height:1.25;font-family:'DM Serif Text';-inkscape-font-specification:'DM Serif Text'"
       d="m 302.5357,213.5401 q -11.99386,0 -21.6384,-4.94592 -9.64455,-4.94592 -15.33236,-14.59046 -5.56416,-9.64455 -5.56416,-23.49312 0,-10.38643 3.3385,-18.42355 3.46214,-8.03712 9.39725,-13.47764 6.05875,-5.56416 13.84857,-8.28441 7.78983,-2.84391 16.56884,-2.84391 6.80064,0 12.73574,1.60743 5.9351,1.48377 11.37562,4.45133 l 0.49459,16.19788 h -3.3385 l -5.19321,-9.76819 q -1.23648,-2.47296 -2.72026,-4.45133 -1.36013,-1.97836 -3.58579,-2.8439 -3.0912,-1.48378 -7.29523,-1.48378 -7.29524,0 -13.35399,3.70944 -5.9351,3.70944 -9.52089,12.3648 -3.5858,8.53172 -3.5858,23.36948 0,14.71411 3.3385,23.36947 3.46214,8.65536 9.2736,12.3648 5.81146,3.58579 13.10669,3.58579 3.33849,0 5.44051,-0.49459 2.10202,-0.49459 4.20403,-1.36013 2.47296,-0.98918 3.83309,-2.8439 1.36013,-1.97837 2.34931,-4.45133 l 4.69863,-11.25197 h 3.33849 l -0.49459,17.80531 q -5.31686,2.96756 -11.74656,4.57498 -6.4297,1.60742 -13.97222,1.60742 z m 62.93691,-0.37094 q -9.14996,0 -16.07424,-3.83309 -6.80064,-3.83309 -10.63373,-10.88102 -3.70944,-7.04794 -3.70944,-16.81613 0,-9.76819 3.95673,-16.81613 4.08039,-7.04794 10.88103,-10.75738 6.92429,-3.83308 15.57965,-3.83308 8.65536,0 15.456,3.83308 6.92428,3.70944 10.88102,10.75738 4.08038,6.92429 4.08038,16.81613 0,9.76819 -3.83308,16.93978 -3.70944,7.04793 -10.51008,10.88102 -6.80064,3.70944 -16.07424,3.70944 z m 0,-3.46214 q 4.45132,0 7.17158,-2.34932 2.8439,-2.47296 4.08038,-8.53171 1.23648,-6.05875 1.23648,-16.93978 0,-11.00467 -1.23648,-17.06342 -1.23648,-6.1824 -4.08038,-8.53171 -2.72026,-2.47296 -7.17158,-2.47296 -4.45133,0 -7.17159,2.47296 -2.72025,2.34931 -4.08038,8.53171 -1.23648,6.05875 -1.23648,17.06342 0,10.88103 1.23648,16.93978 1.36013,6.05875 4.08038,8.53171 2.72026,2.34932 7.17159,2.34932 z m 36.1052,1.73107 v -2.47296 l 2.72026,-0.74189 q 1.97836,-0.61824 2.5966,-1.73107 0.61824,-1.23648 0.74189,-3.21485 v -24.48231 q 0,-4.08038 0,-6.92428 0,-2.84391 -0.12365,-6.677 0,-2.10201 -0.61824,-3.21484 -0.61824,-1.23648 -2.72025,-1.73108 l -2.59661,-0.61824 v -2.22566 l 20.03098,-7.17158 1.48377,1.36012 0.86554,8.28442 q 4.32768,-3.95674 9.64454,-6.80064 5.31687,-2.8439 10.88103,-2.8439 6.1824,0 9.64454,2.47296 3.46214,2.47296 5.31686,7.54252 4.69863,-4.69862 10.38644,-7.29523 5.6878,-2.72025 11.25196,-2.72025 8.40807,0 12.6121,4.20403 4.20403,4.20403 4.20403,13.23033 v 35.73428 q 0,3.95673 3.46215,4.94592 l 2.34931,0.61824 v 2.47296 h -27.8208 v -2.47296 l 2.22566,-0.61824 q 3.3385,-1.11283 3.3385,-5.06957 v -36.22887 q 0,-5.31686 -1.97837,-7.17158 -1.85472,-1.97837 -6.1824,-1.97837 -3.3385,0 -6.30605,1.36013 -2.96755,1.36013 -6.55334,4.20403 0.74189,3.70944 0.74189,8.53171 v 31.4066 q 0.12364,2.10201 0.74188,3.33849 0.74189,1.11284 2.72026,1.60743 l 2.10202,0.61824 v 2.47296 h -27.94445 v -2.47296 l 2.59661,-0.74189 q 1.97836,-0.61824 2.5966,-1.73107 0.74189,-1.23648 0.74189,-3.21485 V 167.1721 q 0,-5.06957 -1.85472,-7.17158 -1.85472,-2.10202 -6.30605,-2.10202 -5.6878,0 -12.24115,5.44051 v 40.06196 q 0,4.08038 3.46215,4.94592 l 2.10201,0.61824 v 2.47296 z m 105.34824,28.56269 v -2.34932 l 1.60742,-0.49459 q 2.47296,-0.61824 3.46214,-2.10201 0.98919,-1.36013 0.98919,-3.95674 0,-5.06957 0,-9.64454 0.12365,-4.45133 0.12365,-8.65536 v -34.00321 q 0,-3.83308 0,-6.55334 0,-2.8439 -0.12365,-6.30605 0,-2.59661 -0.86554,-3.95673 -0.86553,-1.48378 -3.33849,-1.97837 l -1.85472,-0.37095 v -2.22566 l 19.90732,-7.17158 1.48378,1.23648 1.11283,4.57497 q 8.53171,-5.81145 19.28909,-5.81145 10.51008,0 16.81613,7.91347 6.42969,7.91347 6.42969,23.36947 0,14.96141 -7.04793,23.36947 -6.92429,8.28442 -18.91815,8.28442 -4.82227,0 -9.14995,-0.86554 -4.20403,-0.86553 -7.54253,-2.5966 v 3.70944 q 0,3.70944 0,8.03712 0.12365,4.32768 0.12365,9.39724 0,4.94592 4.32768,6.1824 l 2.34931,0.61824 v 2.34932 z m 33.26131,-31.77754 q 6.55334,0 10.26278,-5.81146 3.83309,-5.9351 3.83309,-20.40192 0,-14.34317 -3.58579,-20.03097 -3.58579,-5.81146 -10.13914,-5.81146 -2.34931,0 -5.06957,0.74189 -2.72025,0.74189 -5.81145,2.47296 v 46.73894 q 4.94592,2.10202 10.51008,2.10202 z m 58.98026,4.94592 q -4.82227,0 -8.77901,-1.73107 -3.95673,-1.85472 -6.30605,-5.93511 -2.22566,-4.20403 -2.10201,-11.00467 l 0.37094,-31.03565 q 0,-2.72025 -0.86554,-3.95673 -0.86553,-1.23648 -3.0912,-1.73108 l -1.48377,-0.49459 v -2.22566 l 21.14381,-4.08039 1.36013,1.36013 -0.61824,17.43437 v 28.0681 q 0,4.20403 2.22566,6.1824 2.34931,1.85472 5.81146,1.85472 3.58579,0 6.42969,-0.98919 2.96755,-1.11283 6.05875,-3.21484 l 0.37095,-38.08359 q 0,-2.8439 -0.86554,-3.95674 -0.74189,-1.11283 -2.96755,-1.73107 l -1.36013,-0.37094 v -2.22567 l 20.64922,-4.32768 1.36013,1.36013 -0.37095,17.43437 v 32.39578 q 0,2.59661 0.61824,4.20403 0.74189,1.48378 3.0912,2.22566 l 1.60743,0.4946 v 2.34931 l -20.89652,1.23648 -1.11283,-7.78983 q -4.20403,3.5858 -9.14995,5.93511 -4.94592,2.34931 -11.12832,2.34931 z m 70.60304,0 q -7.66618,0 -12.11751,-3.70944 -4.32768,-3.83309 -4.32768,-12.3648 0,-2.96755 0,-5.56416 0.12365,-2.72026 0.12365,-6.30605 v -29.30458 h -8.77901 v -2.72025 l 3.3385,-0.49459 q 3.58579,-0.61824 6.05875,-2.22567 2.59661,-1.60742 4.69862,-4.45133 l 8.03712,-11.12832 h 3.70944 l -0.37094,17.18708 h 14.09587 v 3.83308 h -14.21952 v 42.16397 q 0,4.45133 1.85472,6.677 1.97837,2.22566 4.82227,2.22566 2.47296,0 4.45133,-1.11283 1.97837,-1.23648 3.95674,-3.21485 l 1.60742,1.85472 q -2.34931,4.08038 -6.55334,6.4297 -4.20403,2.22566 -10.38643,2.22566 z m 38.94909,0 q -7.04793,0 -11.99385,-3.95674 -4.82228,-4.08038 -4.82228,-11.62291 0,-5.9351 5.68781,-10.88102 5.81146,-5.06957 18.17626,-7.41888 2.10201,-0.4946 4.82227,-0.86554 2.8439,-0.49459 5.56416,-0.98918 v -8.77901 q 0,-8.40807 -2.10202,-11.62291 -2.10201,-3.21485 -6.67699,-3.21485 h -0.37094 q -2.84391,0 -4.57498,1.85472 -1.60742,1.73107 -2.10201,5.81145 l -0.37095,1.60743 q -0.37094,4.94592 -2.59661,7.29523 -2.22566,2.22566 -5.56416,2.22566 -3.0912,0 -5.19321,-1.85472 -1.97837,-1.97836 -1.97837,-5.06956 0,-5.06957 3.46214,-8.53172 3.46215,-3.46214 9.14996,-5.19321 5.81145,-1.73107 12.48844,-1.73107 11.00468,0 16.81613,5.31686 5.81146,5.31686 5.81146,17.31072 v 27.57351 q 0,5.31686 5.06957,5.31686 h 2.8439 l 1.23648,1.36013 q -2.22566,2.8439 -4.94592,4.32768 -2.72026,1.60742 -7.41888,1.60742 -5.31686,0 -8.53171,-2.47296 -3.0912,-2.59661 -4.08039,-6.80064 -3.95673,4.20403 -7.78982,6.80064 -3.83309,2.59661 -10.01549,2.59661 z m 7.17159,-7.91347 q 2.47296,0 4.69862,-1.11283 2.22566,-1.11284 5.56416,-3.70944 v -19.78369 q -3.21485,0.4946 -6.55334,1.23648 -5.31687,1.23648 -8.65536,4.57498 -3.21485,3.3385 -3.21485,9.02631 0,4.94592 2.22566,7.41888 2.34931,2.34931 5.93511,2.34931 z m 61.70036,7.91347 q -7.66618,0 -12.1175,-3.70944 -4.32768,-3.83309 -4.32768,-12.3648 0,-2.96755 0,-5.56416 0.12364,-2.72026 0.12364,-6.30605 v -29.30458 h -8.779 v -2.72025 l 3.33849,-0.49459 q 3.58579,-0.61824 6.05875,-2.22567 2.59661,-1.60742 4.69863,-4.45133 l 8.03712,-11.12832 h 3.70944 l -0.37095,17.18708 h 14.09588 v 3.83308 H 777.839 v 42.16397 q 0,4.45133 1.85472,6.677 1.97836,2.22566 4.82227,2.22566 2.47296,0 4.45133,-1.11283 1.97836,-1.23648 3.95673,-3.21485 l 1.60743,1.85472 q -2.34932,4.08038 -6.55335,6.4297 -4.20403,2.22566 -10.38643,2.22566 z m 35.36327,-69.73747 q -4.08038,0 -6.92428,-2.59661 -2.84391,-2.59661 -2.84391,-6.55335 0,-4.08038 2.84391,-6.55334 2.8439,-2.59661 6.92428,-2.59661 4.08039,0 6.92429,2.59661 2.84391,2.47296 2.84391,6.55334 0,3.95674 -2.84391,6.55335 -2.8439,2.59661 -6.92429,2.59661 z m -14.21952,68.0064 v -2.34931 l 1.85472,-0.4946 q 2.47296,-0.74188 3.3385,-2.22566 0.86554,-1.48378 0.98918,-3.95674 v -22.75123 q 0,-3.83309 0,-7.04794 0,-3.33849 -0.12364,-6.80064 0,-2.47296 -0.98919,-3.83308 -0.86553,-1.48378 -3.33849,-1.97837 l -1.73108,-0.37095 v -2.22566 l 21.6384,-7.17158 1.48378,1.36012 -0.37094,17.55802 v 33.38496 q 0,2.47296 0.86553,3.95674 0.98919,1.48377 3.3385,2.22566 l 1.36013,0.37095 v 2.34931 z m 64.66793,1.73107 q -9.14995,0 -16.07424,-3.83309 -6.80064,-3.83309 -10.63372,-10.88102 -3.70944,-7.04794 -3.70944,-16.81613 0,-9.76819 3.95673,-16.81613 4.08039,-7.04794 10.88103,-10.75738 6.92428,-3.83308 15.57964,-3.83308 8.65536,0 15.456,3.83308 6.92429,3.70944 10.88103,10.75738 4.08038,6.92429 4.08038,16.81613 0,9.76819 -3.83309,16.93978 -3.70944,7.04793 -10.51008,10.88102 -6.80064,3.70944 -16.07424,3.70944 z m 0,-3.46214 q 4.45133,0 7.17159,-2.34932 2.8439,-2.47296 4.08038,-8.53171 1.23648,-6.05875 1.23648,-16.93978 0,-11.00467 -1.23648,-17.06342 -1.23648,-6.1824 -4.08038,-8.53171 -2.72026,-2.47296 -7.17159,-2.47296 -4.45132,0 -7.17158,2.47296 -2.72026,2.34931 -4.08038,8.53171 -1.23648,6.05875 -1.23648,17.06342 0,10.88103 1.23648,16.93978 1.36012,6.05875 4.08038,8.53171 2.72026,2.34932 7.17158,2.34932 z m 36.10522,1.73107 v -2.34931 l 1.97836,-0.4946 q 4.08039,-1.23648 4.08039,-6.05875 v -36.47616 q -0.12365,-2.59661 -0.86554,-3.95674 -0.74189,-1.48377 -3.21485,-1.97836 l -1.97836,-0.4946 v -2.22566 l 20.03097,-7.17158 1.48378,1.36012 0.86553,7.66618 q 4.45133,-3.95674 9.89184,-6.4297 5.56416,-2.5966 10.88103,-2.5966 8.16077,0 12.48845,4.45132 4.45132,4.45133 4.45132,13.60128 v 34.37415 q 0,4.82227 4.45133,6.05875 l 1.36013,0.37095 v 2.34931 h -28.43904 v -2.34931 l 1.85472,-0.4946 q 4.08038,-1.36012 4.08038,-6.05875 v -36.72346 q 0,-4.32768 -1.85472,-6.30604 -1.85472,-1.97837 -6.1824,-1.97837 -6.05875,0 -12.61209,5.31686 v 39.81466 q 0,4.82227 4.32768,6.05875 l 1.23648,0.37095 v 2.34931 z m 88.28467,1.73107 q -7.04794,0 -11.99386,-3.95674 -4.82227,-4.08038 -4.82227,-11.62291 0,-5.9351 5.68781,-10.88102 5.81145,-5.06957 18.17625,-7.41888 2.10202,-0.4946 4.82228,-0.86554 2.84392,-0.49459 5.56412,-0.98918 v -8.77901 q 0,-8.40807 -2.102,-11.62291 -2.102,-3.21485 -6.67697,-3.21485 h -0.37095 q -2.8439,0 -4.57497,1.85472 -1.60743,1.73107 -2.10202,5.81145 l -0.37094,1.60743 q -0.37095,4.94592 -2.59661,7.29523 -2.22566,2.22566 -5.56416,2.22566 -3.0912,0 -5.19322,-1.85472 -1.97836,-1.97836 -1.97836,-5.06956 0,-5.06957 3.46214,-8.53172 3.46214,-3.46214 9.14995,-5.19321 5.81146,-1.73107 12.48845,-1.73107 11.00466,0 16.81616,5.31686 5.8114,5.31686 5.8114,17.31072 v 27.57351 q 0,5.31686 5.0696,5.31686 h 2.8439 l 1.2365,1.36013 q -2.2257,2.8439 -4.9459,4.32768 -2.7203,1.60742 -7.4189,1.60742 -5.3169,0 -8.5317,-2.47296 -3.0912,-2.59661 -4.0804,-6.80064 -3.9568,4.20403 -7.78984,6.80064 -3.83309,2.59661 -10.01549,2.59661 z m 7.17158,-7.91347 q 2.47296,0 4.69863,-1.11283 2.22562,-1.11284 5.56412,-3.70944 v -19.78369 q -3.2148,0.4946 -6.55331,1.23648 -5.31686,1.23648 -8.65536,4.57498 -3.21485,3.3385 -3.21485,9.02631 0,4.94592 2.22567,7.41888 2.34931,2.34931 5.9351,2.34931 z m 38.70185,6.1824 v -2.34931 l 1.8547,-0.4946 q 4.0804,-1.36012 4.0804,-6.1824 0,-4.20403 0,-8.40806 0.1237,-4.32768 0.1237,-8.53171 v -46.98624 q 0,-2.59661 -0.8656,-3.83309 -0.8655,-1.36013 -3.3385,-1.97837 l -1.8547,-0.49459 v -2.34931 l 21.6384,-5.19322 1.6074,1.11283 -0.4945,17.43437 v 59.22739 q 0.1236,2.47296 0.9891,4.08039 0.9892,1.48377 3.3385,2.10201 l 1.7311,0.4946 v 2.34931 z m 61.5767,0 v -2.72026 l 2.473,-0.74189 q 2.3493,-0.74188 3.2148,-2.34931 0.8655,-1.73107 0.8655,-4.45133 v -61.20576 q 0,-2.47296 -0.6182,-3.95673 -0.6182,-1.60743 -3.0912,-2.47296 l -2.8439,-1.11284 v -2.72025 h 23.6168 l 23.2458,60.46387 21.8857,-60.46387 h 24.1113 v 2.72025 l -1.9783,0.61824 q -2.3493,0.74189 -3.2149,2.34932 -0.8655,1.48377 -0.8655,3.95673 -0.1237,7.17159 -0.1237,14.34317 0,7.04794 0,14.34317 v 5.06957 q 0,7.17158 0,14.34316 0,7.17159 0.1237,14.21953 0,2.5966 0.6182,3.95673 0.6183,1.36013 2.9676,2.22567 l 2.4729,0.86553 v 2.72026 h -30.0464 v -2.72026 l 2.7202,-0.86553 q 2.3494,-0.86554 2.8439,-2.22567 0.6183,-1.48377 0.6183,-3.95673 v -26.83162 l 0.2473,-33.13767 -25.2242,69.73748 h -6.9243 l -26.5843,-68.99559 0.4946,28.19175 v 30.6647 q 0,2.72026 0.7419,4.32768 0.7418,1.60743 3.0912,2.22567 l 2.4729,0.86553 v 2.72026 z m 126.121,-61.20576 q 7.7899,0 13.354,3.21484 5.5642,3.21485 8.5317,8.90266 3.0912,5.56416 3.0912,12.85939 0,1.60743 -0.1236,3.0912 -0.1237,1.36013 -0.4946,2.59661 h -37.218 q 0.1236,12.73575 4.6986,18.29991 4.6986,5.56416 13.6013,5.56416 6.1824,0 10.0154,-1.97837 3.8331,-2.10202 7.048,-5.81146 l 1.9783,1.85472 q -3.7094,6.80064 -10.1391,10.63373 -6.306,3.70944 -15.085,3.70944 -8.7791,0 -15.456,-3.70944 -6.677,-3.70944 -10.5101,-10.63373 -3.7095,-7.04793 -3.7095,-16.81613 0,-10.13913 4.3277,-17.18707 4.4513,-7.04794 11.3756,-10.75738 7.048,-3.83308 14.7141,-3.83308 z m -0.6182,3.58579 q -3.5858,0 -6.306,2.10201 -2.5967,1.97837 -4.2041,7.17159 -1.4838,5.06957 -1.731,14.34317 h 22.1329 q 1.3602,-12.48845 -0.9891,-18.05261 -2.3494,-5.56416 -8.9027,-5.56416 z m 57.8673,59.35104 q -7.2953,0 -13.1067,-3.21485 -5.8115,-3.33849 -9.15,-10.13913 -3.2148,-6.92429 -3.2148,-17.55802 0,-10.63373 3.7094,-17.68167 3.7095,-7.17158 9.8919,-10.75737 6.1824,-3.58579 13.6012,-3.58579 4.4514,0 8.5318,1.11283 4.0803,0.98918 7.1715,3.0912 v -16.07424 q 0,-2.59661 -0.8655,-3.70944 -0.7419,-1.23648 -3.2148,-1.85472 l -2.473,-0.49459 v -2.34932 l 21.5147,-5.31686 1.6075,1.11283 -0.4946,17.43437 v 59.47469 q 0,2.34931 0.8655,3.95674 0.8656,1.48377 3.0912,2.10201 l 1.3601,0.37095 v 2.34931 l -20.5255,1.36013 -1.1129,-5.19322 q -3.3385,2.59661 -7.6661,4.08038 -4.3277,1.48378 -9.5209,1.48378 z m 6.8006,-5.68781 q 5.3169,0 10.0155,-3.46214 v -45.99706 q -4.575,-2.8439 -9.8918,-2.8439 -6.0588,0 -10.3865,6.42969 -4.3277,6.30605 -4.3277,20.40192 0,14.09588 4.0804,19.78368 4.0804,5.68781 10.5101,5.68781 z m 51.9322,-64.04966 q -4.0804,0 -6.9243,-2.59661 -2.8439,-2.59661 -2.8439,-6.55335 0,-4.08038 2.8439,-6.55334 2.8439,-2.59661 6.9243,-2.59661 4.0804,0 6.9243,2.59661 2.8439,2.47296 2.8439,6.55334 0,3.95674 -2.8439,6.55335 -2.8439,2.59661 -6.9243,2.59661 z m -14.2195,68.0064 v -2.34931 l 1.8547,-0.4946 q 2.4729,-0.74188 3.3385,-2.22566 0.8655,-1.48378 0.9892,-3.95674 v -22.75123 q 0,-3.83309 0,-7.04794 0,-3.33849 -0.1237,-6.80064 0,-2.47296 -0.9892,-3.83308 -0.8655,-1.48378 -3.3385,-1.97837 l -1.731,-0.37095 v -2.22566 l 21.6384,-7.17158 1.4837,1.36012 -0.3709,17.55802 v 33.38496 q 0,2.47296 0.8655,3.95674 0.9892,1.48377 3.3385,2.22566 l 1.3601,0.37095 v 2.34931 z m 64.0497,1.73107 q -8.4081,0 -15.2087,-3.58579 -6.8006,-3.70944 -10.7574,-10.63373 -3.8331,-7.04794 -3.8331,-17.06343 0,-10.01548 4.3277,-17.06342 4.3277,-7.04794 11.4993,-10.75738 7.2952,-3.83308 15.9506,-3.83308 7.0479,0 11.9938,2.34931 4.9459,2.34931 7.5426,6.05875 2.5966,3.58579 2.5966,7.66618 0,3.46214 -2.1021,5.31686 -1.9783,1.85472 -5.1932,1.85472 -3.4621,0 -5.6878,-2.47296 -2.102,-2.47296 -2.4729,-6.30605 -0.1237,-2.47296 0,-4.20403 0.2473,-1.73107 0,-3.3385 -0.4946,-2.10201 -1.7311,-2.8439 -1.1128,-0.74189 -3.2149,-0.74189 -7.7898,0 -11.9938,6.30605 -4.0804,6.1824 -4.0804,20.15462 0,11.99386 4.575,18.42356 4.575,6.42969 14.2195,6.42969 5.6878,0 9.3972,-2.10201 3.7095,-2.22567 6.8007,-6.30605 l 1.9784,1.48378 q -3.0912,7.41888 -9.5209,11.37561 -6.3061,3.83309 -15.0851,3.83309 z m 44.7605,-69.73747 q -4.0804,0 -6.9243,-2.59661 -2.8439,-2.59661 -2.8439,-6.55335 0,-4.08038 2.8439,-6.55334 2.8439,-2.59661 6.9243,-2.59661 4.0804,0 6.9243,2.59661 2.8439,2.47296 2.8439,6.55334 0,3.95674 -2.8439,6.55335 -2.8439,2.59661 -6.9243,2.59661 z m -14.2196,68.0064 v -2.34931 l 1.8548,-0.4946 q 2.4729,-0.74188 3.3385,-2.22566 0.8655,-1.48378 0.9891,-3.95674 v -22.75123 q 0,-3.83309 0,-7.04794 0,-3.33849 -0.1236,-6.80064 0,-2.47296 -0.9892,-3.83308 -0.8655,-1.48378 -3.3385,-1.97837 l -1.7311,-0.37095 v -2.22566 l 21.6384,-7.17158 1.4838,1.36012 -0.3709,17.55802 v 33.38496 q 0,2.47296 0.8655,3.95674 0.9892,1.48377 3.3385,2.22566 l 1.3601,0.37095 v 2.34931 z m 33.7559,0 v -2.34931 l 1.9784,-0.4946 q 4.0804,-1.23648 4.0804,-6.05875 v -36.47616 q -0.1237,-2.59661 -0.8656,-3.95674 -0.7419,-1.48377 -3.2148,-1.97836 l -1.9784,-0.4946 v -2.22566 l 20.031,-7.17158 1.4838,1.36012 0.8655,7.66618 q 4.4513,-3.95674 9.8918,-6.4297 5.5642,-2.5966 10.8811,-2.5966 8.1607,0 12.4884,4.45132 4.4513,4.45133 4.4513,13.60128 v 34.37415 q 0,4.82227 4.4514,6.05875 l 1.3601,0.37095 v 2.34931 h -28.439 v -2.34931 l 1.8547,-0.4946 q 4.0804,-1.36012 4.0804,-6.05875 v -36.72346 q 0,-4.32768 -1.8548,-6.30604 -1.8547,-1.97837 -6.1824,-1.97837 -6.0587,0 -12.6121,5.31686 v 39.81466 q 0,4.82227 4.3277,6.05875 l 1.2365,0.37095 v 2.34931 z m 101.8859,-61.20576 q 7.7898,0 13.354,3.21484 5.5641,3.21485 8.5317,8.90266 3.0912,5.56416 3.0912,12.85939 0,1.60743 -0.1237,3.0912 -0.1236,1.36013 -0.4945,2.59661 h -37.2181 q 0.1237,12.73575 4.6986,18.29991 4.6987,5.56416 13.6013,5.56416 6.1824,0 10.0155,-1.97837 3.8331,-2.10202 7.0479,-5.81146 l 1.9784,1.85472 q -3.7094,6.80064 -10.1391,10.63373 -6.3061,3.70944 -15.0851,3.70944 -8.779,0 -15.456,-3.70944 -6.677,-3.70944 -10.5101,-10.63373 -3.7094,-7.04793 -3.7094,-16.81613 0,-10.13913 4.3277,-17.18707 4.4513,-7.04794 11.3756,-10.75738 7.0479,-3.83308 14.7141,-3.83308 z m -0.6182,3.58579 q -3.5858,0 -6.3061,2.10201 -2.5966,1.97837 -4.204,7.17159 -1.4838,5.06957 -1.7311,14.34317 h 22.133 q 1.3601,-12.48845 -0.9892,-18.05261 -2.3493,-5.56416 -8.9026,-5.56416 z"
       id="path26" />
  </g>
</svg>
