<?xml version="1.0" encoding="UTF-8" standalone="no"?>
<!-- Created with Inkscape (http://www.inkscape.org/) -->

<svg
   width="779.28656"
   height="282.83734"
   viewBox="0 0 779.28656 282.83734"
   version="1.1"
   id="svg1"
   xmlns:xlink="http://www.w3.org/1999/xlink"
   xmlns="http://www.w3.org/2000/svg"
   xmlns:svg="http://www.w3.org/2000/svg">
  <defs
     id="defs1">
    <linearGradient
       id="linearGradient38">
      <stop
         style="stop-color:#000000;stop-opacity:1;"
         offset="0"
         id="stop38" />
      <stop
         style="stop-color:#909090;stop-opacity:1;"
         offset="1"
         id="stop39" />
    </linearGradient>
    <linearGradient
       xlink:href="#linearGradient38"
       id="linearGradient39"
       x1="736.9425"
       y1="235.7708"
       x2="1024.0476"
       y2="-51.334328"
       gradientUnits="userSpaceOnUse" />
  </defs>
  <g
     id="g35"
     style="display:inline"
     transform="translate(-4.6248615e-5,-299.02962)">
    <path
       style="font-size:192.461px;line-height:1;font-family:'Zx Proto';-inkscape-font-specification:'Zx Proto';font-variant-ligatures:none;text-align:end;letter-spacing:-19.332px;text-anchor:end;white-space:pre;fill:#ff004c;fill-opacity:1;stroke-width:0.828512"
       d="m 1179.6538,145.43369 h -93.5361 v 16.55165 h 93.5361 z"
       transform="matrix(1.5518297,0,0,1.5518297,-1051.3352,297.34131)"
       id="path38" />
    <path
       id="text35"
       style="font-size:192.461px;line-height:1;font-family:'Zx Proto';-inkscape-font-specification:'Zx Proto';font-variant-ligatures:none;text-align:end;letter-spacing:-19.332px;text-anchor:end;white-space:pre;fill:url(#linearGradient39);stroke-width:0.828512"
       transform="matrix(1.5518297,0,0,1.5518297,-1051.3352,297.34131)"
       d="m 695.37994,183.34851 h 18.09134 v -45.22833 c 5.00398,4.23414 11.74012,7.31351 20.59332,7.31351 26.55962,0 45.4208,-23.86516 47.73033,-56.006147 2.30953,-32.91083 -15.20442,-52.926774 -39.83943,-52.926774 -11.54766,0 -21.74809,5.581369 -28.48422,12.317504 l -1.92461,-10.777816 h -34.0656 v 11.162738 l 17.89887,3.079376 z m 37.91482,-54.65892 c -9.04567,0 -16.55165,-5.77383 -19.82348,-13.85719 V 71.33621 c 5.19644,-10.585355 15.01195,-18.091334 26.55961,-18.091334 17.12903,0 24.82747,14.819497 23.09532,36.182667 -1.73214,21.748097 -13.08734,39.262047 -29.83145,39.262047 z m 101.14875,20.01594 c 9.81551,0 18.47625,-2.88691 25.78977,-6.73613 5.00399,3.65676 11.93258,5.3889 22.32548,5.00398 v -15.58934 c -8.27583,-0.38492 -12.31751,-4.23414 -12.31751,-11.16274 V 1.0879451 H 851.95746 V 46.31628 c -5.96629,-5.196447 -13.66473,-8.275823 -22.51794,-8.275823 -23.86516,0 -44.65095,19.631022 -44.65095,54.851384 0,33.295749 22.90286,55.813689 49.65494,55.813689 z m 0,-16.74411 c -17.70642,0 -31.37115,-15.39688 -31.37115,-39.069579 0,-23.672702 9.43059,-37.914816 30.21638,-37.914816 7.12106,0 14.43457,3.271837 18.66872,8.083362 v 65.821663 c -5.19645,2.11707 -10.77782,3.07937 -17.51395,3.07937 z m 54.76564,0 c 10.97028,9.23813 28.09931,16.35919 45.4208,16.35919 26.75208,0 41.76403,-11.93258 41.76403,-30.21638 0,-33.10329 -64.85935,-35.0279 -64.08951,-51.772006 0.38492,-7.505979 11.16274,-12.702426 22.51794,-12.702426 10.39289,0 18.28379,4.041681 26.94454,10.585355 L 973.31461,51.897649 C 961.76695,42.082138 950.79667,36.69323 934.82241,36.69323 c -18.2838,0 -41.37912,10.585355 -41.37912,30.023916 0,32.333447 64.08952,29.06161 64.08952,51.579544 0,7.69844 -7.8909,13.08735 -22.90286,13.08735 -11.3552,0 -23.48024,-5.38891 -33.68068,-12.3175 z m 96.9146,13.47227 h 80.06375 v -15.7818 h -39.6469 V 69.988983 c 9.4305,-9.238128 17.5139,-15.781802 26.1747,-15.781802 6.5436,0 13.0873,2.501993 17.3214,7.69844 l 13.4723,-11.355199 c -5.004,-8.853206 -15.2044,-13.857192 -26.1747,-14.049653 -11.7401,-0.192461 -22.133,7.121057 -31.3711,15.589341 l -1.9246,-14.049653 h -33.87317 v 11.162738 l 17.51397,3.079376 v 77.369319 h -21.55565 z" />
  </g>
</svg>
